<?xml version="1.0" standalone="no"?>
<!DOCTYPE svg PUBLIC "-//W3C//DTD SVG 1.1//EN" "http://www.w3.org/Graphics/SVG/1.1/DTD/svg11.dtd" >
<svg>
<metadata>
Created by FontForge 20120731 at Sun Jan 24 04:47:19 2016
 By ,,,
(c) 1993, 2001, 2002 Adobe Systems Incorporated. All rights reserved.
</metadata>
<defs>
<font id="OfficinaSerifStd-Book" horiz-adv-x="500" >
  <font-face 
    font-family="ITC Officina Serif Std Book"
    font-weight="400"
    font-stretch="normal"
    units-per-em="1000"
    panose-1="2 6 5 6 4 2 3 2 2 4"
    ascent="717"
    descent="-283"
    x-height="480"
    cap-height="685"
    bbox="-79 -250 1041 923"
    underline-thickness="50"
    underline-position="-50"
    unicode-range="U+0020-FB02"
  />
<missing-glyph 
d="M0 0v700h500v-700h-500zM250 395l170 255h-340zM280 350l170 -255v510zM80 50h340l-170 255zM50 605v-510l170 255z" />
    <glyph glyph-name="f_i" unicode="fi" horiz-adv-x="593" 
d="M509 656q0 -25 -18 -43t-43 -18q-26 0 -43.5 17.5t-17.5 43.5t17.5 43.5t43.5 17.5q25 0 43 -18t18 -43zM575 50v-38q0 -12 -12 -12h-219q-12 0 -12 12v38q0 12 12 12h72v356h-223v-356h70q12 0 12 -12v-38q0 -12 -12 -12h-202q-12 0 -12 12v38q0 12 12 12h56v356h-70
q-7 0 -7 12v38q0 12 7 12h70v78q0 26 2 46.5t10 44t21.5 39t38 26t57.5 10.5q23 0 61 -12t38 -23q0 -1 -1 -3t-2 -5l-2 -6l-14 -33q-4 -6 -7 -6q-5 0 -30 10.5t-46 10.5q-32 0 -41 -24t-9 -76v-77h286q13 0 13 -15v-403h71q12 0 12 -12z" />
    <glyph glyph-name="f_l" unicode="fl" horiz-adv-x="611" 
d="M588 55l13 -37q2 -4 2 -7q0 -8 -28.5 -16.5t-56.5 -8.5q-73 0 -94 48q-14 31 -14 145v456q-5 1 -29.5 9.5t-50 13t-58.5 4.5q-51 0 -65.5 -25t-14.5 -80v-77h131q11 0 11 -7q0 -1 -0.5 -3t-0.5 -4l-13 -39q-4 -9 -13 -9h-115v-356h70q12 0 12 -12v-38q0 -12 -12 -12h-202
q-12 0 -12 12v38q0 12 12 12h56v356h-70q-7 0 -7 12v38q0 12 7 12h70v78q0 33 5.5 58.5t20.5 52t48.5 41t84.5 14.5q26 0 51 -4.5t50 -11t36 -8.5l53 19q2 0 7 2.5t8 2.5q6 0 6 -12v-535q0 -76 3 -94q2 -12 11.5 -23.5t28.5 -11.5q15 0 33 6.5t19 6.5q5 0 7 -6z" />
    <glyph glyph-name=".notdef" 
d="M0 0v700h500v-700h-500zM250 395l170 255h-340zM280 350l170 -255v510zM80 50h340l-170 255zM50 605v-510l170 255z" />
    <glyph glyph-name=".null" horiz-adv-x="0" 
 />
    <glyph glyph-name="nonmarkingreturn" horiz-adv-x="333" 
 />
    <glyph glyph-name="space" unicode=" " horiz-adv-x="296" 
 />
    <glyph glyph-name="exclam" unicode="!" horiz-adv-x="333" 
d="M237 56q0 -29 -20.5 -49.5t-49.5 -20.5t-49.5 20.5t-20.5 49.5t20.5 49.5t49.5 20.5t49.5 -20.5t20.5 -49.5zM215 657l-21 -379q0 -8 -3 -10.5t-11 -2.5h-28q-13 0 -14 13l-22 380q0 4 -0.5 10.5t-0.5 8.5q0 8 13 8h75q13 0 13 -8q0 -15 -1 -20z" />
    <glyph glyph-name="quotedbl" unicode="&#x22;" horiz-adv-x="389" 
d="M160 692l-14 -226q-1 -13 -14 -13h-22q-15 0 -15 13l-15 226q-1 6 -1 16q0 9 13 9h56q13 0 13 -9q0 -3 -0.5 -8.5t-0.5 -7.5zM308 692l-14 -226q-1 -13 -14 -13h-22q-15 0 -15 13l-15 226q-1 6 -1 16q0 9 13 9h56q13 0 13 -9q0 -3 -0.5 -8.5t-0.5 -7.5z" />
    <glyph glyph-name="numbersign" unicode="#" 
d="M305 177l20 200h-126l-21 -200h127zM172 112l-18 -180q-1 -8 -3 -10t-11 -2h-36q-10 0 -12 2.5t-1 11.5l18 178h-55q-9 0 -11 2.5t-2 10.5v39q0 13 14 13h61l20 200h-65q-8 0 -8 8v49q0 8 8 8h72l21 201q2 10 4 12t11 2h36q9 0 11 -2.5t1 -11.5l-21 -201h126l21 201
q2 10 4 12t11 2h36q9 0 11.5 -2.5t1.5 -11.5l-21 -201h55q9 0 11 -2.5t2 -10.5v-39q0 -13 -14 -13h-61l-21 -200h66q8 0 8 -8v-49q0 -8 -8 -8h-72l-18 -177q-2 -11 -4 -13t-11 -2h-36q-9 0 -11.5 3t-1.5 11l18 178h-126z" />
    <glyph glyph-name="dollar" unicode="$" 
d="M285 591v-228q2 -1 21.5 -12t26 -15t24.5 -16.5t26 -21t21 -23.5t19 -29.5t11 -34.5t5 -41q0 -46 -16.5 -82t-43 -55.5t-49.5 -29t-45 -13.5v-65q0 -8 -3 -10.5t-11 -2.5h-26q-9 0 -11.5 2.5t-2.5 10.5v61q-42 0 -106 19t-64 35q0 4 3 13l15 39q4 8 8 8q3 0 13.5 -5.5
t29.5 -14t38 -14.5q40 -12 63 -13v251q-3 2 -26.5 15t-35 20.5t-32.5 24.5t-31.5 33t-19.5 41t-9 52q0 41 17.5 74.5t42.5 52t50 28.5t44 10v57q0 8 2.5 11t11.5 3h26q9 0 11.5 -3t2.5 -11v-55q31 0 84.5 -16.5t53.5 -32.5q0 -2 -2 -5.5t-2 -4.5l-16 -40q-2 -5 -7 -5
q-4 0 -9.5 3t-17.5 9t-26 11q-29 11 -58 15zM231 384v204q-72 -12 -72 -91q0 -10 1.5 -19.5t3.5 -17t6 -15.5t7 -13t9 -11.5t9 -9.5t10 -8.5t9 -7t9 -6.5t8 -5zM285 283v-226q30 7 51 32.5t21 72.5q0 11 -1.5 21.5t-3.5 18.5t-6.5 16.5t-7.5 14t-9 12.5t-9 10t-10 9t-9 7.5
t-9 6.5z" />
    <glyph glyph-name="percent" unicode="%" horiz-adv-x="741" 
d="M159 370q70 0 70 119q0 114 -64 114q-70 0 -70 -120q0 -113 64 -113zM496 640l-200 -644q-4 -10 -18 -10h-38q-13 0 -13 7q0 1 1 4t1 5l199 645q2 10 15 10h42q13 0 13 -8q0 -1 -1 -4t-1 -5zM575 40q70 0 70 119q0 114 -64 114q-70 0 -70 -120q0 -113 64 -113zM295 495
q0 -87 -37 -133t-99 -46q-63 0 -96.5 43.5t-33.5 120.5q0 85 37.5 131t99.5 46t95.5 -43t33.5 -119zM711 165q0 -87 -37 -133t-99 -46q-63 0 -96.5 43.5t-33.5 120.5q0 85 37.5 131t99.5 46t95.5 -43t33.5 -119z" />
    <glyph glyph-name="ampersand" unicode="&#x26;" horiz-adv-x="611" 
d="M504 -7l-55 65q-24 -20 -39.5 -31t-58 -26t-88.5 -15q-95 0 -150.5 50.5t-55.5 129.5q0 25 5.5 47.5t16 41t20.5 32t26 27t24.5 20t23.5 16t16 10.5q-86 104 -86 178q0 77 54 119t123 42q63 0 107 -37.5t44 -109.5q0 -37 -12.5 -68.5t-38.5 -57.5t-39 -36.5t-39 -27.5
q-5 -4 -7 -5l165 -191q30 46 30 116v13q0 12 12 12h49q12 0 12 -16q0 -96 -58 -177l65 -76q5 -5 5 -7q0 -5 -5 -8l-40 -33q-6 -4 -12 -4q-7 0 -14 7zM179 546q0 -57 76 -146q58 42 80 77q20 33 20 69q0 43 -24.5 67t-60.5 24t-63.5 -24.5t-27.5 -66.5zM408 107l-179 211
l-9 -6q-8 -7 -11.5 -10t-12.5 -10.5t-14 -13.5t-12.5 -15.5t-12 -19t-9.5 -20.5t-7 -24t-2 -27q0 -55 36 -87t96 -32q74 0 137 54z" />
    <glyph glyph-name="quotesingle" unicode="'" horiz-adv-x="167" 
d="M123 692l-14 -226q-1 -13 -14 -13h-22q-15 0 -15 13l-15 226q-1 6 -1 16q0 9 13 9h56q13 0 13 -9q0 -3 -0.5 -8.5t-0.5 -7.5z" />
    <glyph glyph-name="parenleft" unicode="(" horiz-adv-x="370" 
d="M286 720l25 -15q7 -5 7 -9q0 -6 -5 -12t-20 -26t-32 -52q-54 -99 -75 -174t-21 -187q0 -104 24 -193t52.5 -135.5t52.5 -81t24 -40.5q0 -7 -18 -17.5t-25 -10.5t-28 23t-49 68t-53.5 101t-43.5 133t-18 153q0 79 18 156.5t43.5 133.5t53.5 100t49 66.5t28 22.5q3 0 11 -4
z" />
    <glyph glyph-name="parenright" unicode=")" horiz-adv-x="370" 
d="M84 -229l-25 15q-7 5 -7 9q0 6 5 12t20 26t32 52q54 99 75 174t21 187q0 104 -24 193t-52.5 135.5t-52.5 81t-24 40.5q0 7 18 17.5t25 10.5t28 -23t49 -68t53.5 -101t43.5 -133t18 -153q0 -79 -18 -156.5t-43.5 -133.5t-53.5 -100t-49 -66.5t-28 -22.5q-3 0 -11 4z" />
    <glyph glyph-name="asterisk" unicode="*" 
d="M362 400l-32 -23q-6 -4 -10 -4t-9 8l-61 100l-61 -100q-5 -8 -9 -8t-10 4l-32 23q-8 6 -8 10q0 1 1 3t2.5 3.5t1.5 2.5l76 90l-114 27q-11 4 -11 9q1 5 3 11l11 35q4 11 9 11q2 0 6 -2q2 -1 3 -1l108 -45l-8 101q0 3 -0.5 10t-0.5 9q0 11 10 11h46q10 0 10 -11
q0 -2 -0.5 -9t-0.5 -10l-8 -101l108 45q1 0 3 1q4 2 6 2q5 0 9 -11l11 -35q2 -6 3 -11q0 -5 -11 -9l-114 -27l76 -90q0 -1 1.5 -2.5t2.5 -3.5t1 -3q0 -4 -8 -10z" />
    <glyph glyph-name="plus" unicode="+" 
d="M285 290h178q9 0 11.5 -2.5t2.5 -11.5v-44q0 -9 -2.5 -11.5t-11.5 -2.5h-178v-178q0 -14 -13 -14h-46q-13 0 -13 14v178h-178q-9 0 -11 2.5t-2 11.5v44q0 9 2 11.5t11 2.5h178v176q0 14 13 14h46q13 0 13 -14v-176z" />
    <glyph glyph-name="comma" unicode="," horiz-adv-x="296" 
d="M229 97l-115 -211q-5 -9 -9 -9q-1 0 -4 1t-5 1l-22 7q-11 5 -11 9q0 3 2 9l59 199q3 11 15 11h80q14 0 14 -7q0 -2 -2 -5.5t-2 -4.5z" />
    <glyph glyph-name="hyphen" unicode="-" horiz-adv-x="352" 
d="M301 279v-51q0 -10 -14 -10h-222q-14 0 -14 13v46q0 16 13 16h223q14 0 14 -14z" />
    <glyph glyph-name="period" unicode="." horiz-adv-x="296" 
d="M218 56q0 -29 -20.5 -49.5t-49.5 -20.5t-49.5 20.5t-20.5 49.5t20.5 49.5t49.5 20.5t49.5 -20.5t20.5 -49.5z" />
    <glyph glyph-name="slash" unicode="/" 
d="M0 -185l384 898q4 11 17 11h40q12 0 12 -6q0 -4 -4 -12l-384 -898q-4 -10 -16 -10h-39q-13 0 -13 8q0 2 2 6q1 2 1 3z" />
    <glyph glyph-name="zero" unicode="0" 
d="M45 317q0 152 54.5 246t156.5 94q55 0 94.5 -26t62 -73t32.5 -103.5t10 -125.5q0 -75 -11 -135t-35 -108t-65 -74t-96 -26q-101 0 -152 91t-51 240zM254 587q-65 0 -96 -74t-31 -190q0 -267 123 -267q36 0 60.5 20t38 59t19 85.5t5.5 108.5q0 258 -119 258z" />
    <glyph glyph-name="one" unicode="1" 
d="M425 53v-41q0 -12 -12 -12h-268q-12 0 -12 12v41q0 12 12 12h102v489l-138 -80q-5 -4 -10 -4t-9 9l-11 21q-4 6 -4 10q0 3 8 9l177 124h50q8 0 10.5 -2.5t2.5 -11.5v-564h90q12 0 12 -12z" />
    <glyph glyph-name="two" unicode="2" 
d="M430 56v-42q0 -9 -2.5 -11.5t-10.5 -2.5h-335q-8 0 -10.5 2.5t-2.5 10.5q0 79 23 140.5t50 93t68 63.5q15 12 49.5 35t48.5 35.5t27.5 39t13.5 60.5q0 46 -25 76.5t-72 30.5q-35 0 -59 -17t-33 -37t-16.5 -37t-12.5 -17q-6 0 -8 1l-44 13q-8 2 -8 9q0 14 10.5 37.5
t30.5 51t58.5 47t86.5 19.5q80 0 127 -49.5t47 -131.5q0 -46 -18.5 -83t-38.5 -54.5t-61 -47t-60 -45.5q-36 -31 -57.5 -65t-27.5 -55.5t-11 -55.5h260q8 0 10.5 -3t2.5 -11z" />
    <glyph glyph-name="three" unicode="3" 
d="M105 529l-33 28q-6 5 -6 9t7.5 14t22.5 23t35 25t48 20.5t57 8.5q73 0 121.5 -44t48.5 -118q0 -103 -103 -148q125 -39 125 -168q0 -86 -58 -139.5t-156 -53.5q-48 0 -105 14t-57 30q0 2 2 8l20 45q2 6 8 6q1 0 19 -8.5t49 -16.5t65 -8q63 0 97 33.5t34 92.5
q0 123 -145 123h-34q-9 0 -11.5 2.5t-2.5 10.5v40q0 8 3 11t11 3h34q50 0 89.5 28.5t39.5 92.5q0 43 -27.5 68.5t-70.5 25.5q-32 0 -58.5 -15.5t-42 -30.5t-19.5 -15t-7 3z" />
    <glyph glyph-name="four" unicode="4" 
d="M375 142v-142q0 -8 -2.5 -11t-10.5 -3h-49q-8 0 -11 3t-3 11v142h-254q-9 0 -11.5 2.5t-2.5 10.5v57l262 436q5 9 11 9q1 0 13 -2l42 -7q13 -2 13 -9q0 -4 -5 -9l-257 -423h189l13 161q0 8 2.5 10.5t11.5 2.5h36q8 0 10.5 -3t2.5 -11v-160h80q8 0 11 -2.5t3 -11.5v-38
q0 -9 -2.5 -11t-11.5 -2h-80z" />
    <glyph glyph-name="five" unicode="5" 
d="M169 573l-22 -203q61 43 120 43q76 0 123 -54t47 -141q0 -102 -60.5 -167t-170.5 -65q-48 0 -91.5 8.5t-43.5 20.5q0 5 1 8l11 45q1 7 8 7q2 0 17 -4.5t39.5 -9.5t51.5 -5q156 0 156 160q0 59 -26.5 93t-76.5 34q-29 0 -53 -9.5t-36 -21.5t-22.5 -21.5t-14.5 -9.5
q-6 0 -9 1l-35 12q-10 3 -10 9q0 1 1 7.5t1 8.5l30 311q1 8 3.5 10.5t10.5 2.5h260q9 0 11.5 -2.5t2.5 -11.5v-43q0 -8 -3 -10.5t-11 -2.5h-209z" />
    <glyph glyph-name="six" unicode="6" 
d="M419 625l-15 -38q-3 -8 -10 -8q-1 0 -22.5 5.5t-44.5 5.5q-42 0 -74.5 -17.5t-50 -37t-31.5 -57t-17.5 -53.5t-9.5 -50q-1 -7 -2 -10l2 -2q44 77 129 77q75 0 121.5 -60.5t46.5 -161.5t-53.5 -166.5t-140.5 -65.5q-185 0 -185 275q0 52 7 103.5t26 105.5t47.5 94.5
t75 66.5t105.5 26q61 0 90 -16q10 -5 6 -16zM248 56q49 0 80 40.5t31 117.5q0 69 -27 112.5t-78 43.5q-57 0 -83.5 -44t-26.5 -117q0 -74 27 -113.5t77 -39.5z" />
    <glyph glyph-name="seven" unicode="7" 
d="M434 606l-231 -605q-4 -10 -9 -10q-6 0 -14 2l-47 7q-12 2 -12 8q0 2 2 6q1 2 1 3l216 556h-258q-9 0 -11.5 2.5t-2.5 11.5v42q0 9 2.5 11.5t11.5 2.5h338q8 0 11 -2.5t3 -11.5v-23z" />
    <glyph glyph-name="eight" unicode="8" 
d="M186 340q-22 10 -38 20t-36.5 28t-32 45.5t-11.5 62.5q0 68 50 114.5t132 46.5q86 0 133.5 -44.5t47.5 -107.5q0 -36 -11 -65t-31.5 -48.5t-34.5 -29t-36 -20.5q142 -58 142 -175q0 -72 -55.5 -126.5t-153.5 -54.5t-154.5 49.5t-56.5 130.5q0 128 146 174zM146 499
q0 -22 9.5 -41.5t19.5 -31.5t29.5 -25t26 -16.5t22.5 -11.5q19 9 29.5 15t30.5 21.5t30 37.5t10 50q0 42 -29 67.5t-75 25.5q-44 0 -73.5 -24.5t-29.5 -66.5zM378 162q0 31 -14 56.5t-40.5 43t-40 24.5t-35.5 16q-1 0 -13.5 -5.5t-18.5 -8.5t-20 -11t-22 -14.5t-19.5 -18
t-17.5 -22.5t-10.5 -27t-4.5 -33q0 -52 38 -80.5t92 -28.5q53 0 89.5 29.5t36.5 79.5z" />
    <glyph glyph-name="nine" unicode="9" 
d="M87 16l4 40q0 8 10 8q1 0 22.5 -5.5t44.5 -5.5q42 0 74.5 17.5t50 37t31.5 57t17.5 53.5t9.5 50q1 7 2 10l-2 2q-44 -77 -129 -77q-75 0 -121.5 60.5t-46.5 161.5t53.5 166.5t140.5 65.5q185 0 185 -275q0 -53 -6.5 -103.5t-24 -105t-44.5 -95t-72.5 -66.5t-103.5 -26
q-54 0 -89 14q-8 3 -6 16zM247 587q-49 0 -80 -40.5t-31 -117.5q0 -69 27 -112.5t78 -43.5q57 0 83.5 44t26.5 117q0 74 -27 113.5t-77 39.5z" />
    <glyph glyph-name="colon" unicode=":" horiz-adv-x="296" 
d="M218 56q0 -29 -20.5 -49.5t-49.5 -20.5t-49.5 20.5t-20.5 49.5t20.5 49.5t49.5 20.5t49.5 -20.5t20.5 -49.5zM218 410q0 -29 -20.5 -49.5t-49.5 -20.5t-49.5 20.5t-20.5 49.5t20.5 49.5t49.5 20.5t49.5 -20.5t20.5 -49.5z" />
    <glyph glyph-name="semicolon" unicode=";" horiz-adv-x="296" 
d="M218 97l-115 -211q-5 -9 -9 -9q-2 0 -5 1t-4 1l-22 7q-11 5 -11 9q0 3 2 9l59 199q3 11 15 11h80q14 0 14 -7q0 -2 -2 -5.5t-2 -4.5zM233 410q0 -29 -20 -49.5t-50 -20.5q-29 0 -49.5 20.5t-20.5 49.5t20.5 49.5t49.5 20.5t49.5 -20.5t20.5 -49.5z" />
    <glyph glyph-name="less" unicode="&#x3c;" 
d="M476 121l-16 -46q-3 -10 -10 -10q-4 0 -11 3l-404 146q-5 1 -6.5 2t-3 4.5t-1.5 9.5v48q0 6 1.5 9t2.5 3.5t7 2.5l404 146q2 0 5.5 1.5t5.5 1.5q7 0 10 -10l16 -46q2 -2 2 -7q0 -6 -9 -10l-322 -114v-2l322 -115q9 -4 9 -10q0 -5 -2 -7z" />
    <glyph glyph-name="equal" unicode="=" 
d="M477 207v-44q0 -9 -2.5 -11.5t-11.5 -2.5h-428q-9 0 -11 2.5t-2 11.5v44q0 9 2 11.5t11 2.5h428q9 0 11.5 -2.5t2.5 -11.5zM477 344v-44q0 -9 -2.5 -11.5t-11.5 -2.5h-428q-9 0 -11 2.5t-2 11.5v44q0 9 2 11.5t11 2.5h428q9 0 11.5 -2.5t2.5 -11.5z" />
    <glyph glyph-name="greater" unicode="&#x3e;" 
d="M478 277v-48q0 -6 -1.5 -9t-2.5 -3.5t-7 -2.5l-404 -146q-2 0 -5.5 -1.5t-5.5 -1.5q-7 0 -10 10l-16 46q-2 2 -2 7q0 6 9 10l322 114v2l-322 115q-9 4 -9 10q0 5 2 7l16 46q3 10 10 10q4 0 11 -3l404 -146q5 -1 6.5 -2t3 -4.5t1.5 -9.5z" />
    <glyph glyph-name="question" unicode="?" horiz-adv-x="426" 
d="M223 369v-91q0 -8 -2.5 -10.5t-11.5 -2.5h-40q-9 0 -11.5 2.5t-2.5 10.5v111q0 26 9 30q2 1 20 5.5t34.5 11.5t35 19t29.5 33t11 48q0 96 -101 96q-25 0 -52 -7.5t-44.5 -15t-20.5 -7.5q-8 0 -11 10l-14 35q-1 2 -1 7q0 15 53.5 30t97.5 15q75 0 125 -38t50 -123
q0 -36 -12 -65t-28 -45.5t-40 -30t-38.5 -18.5t-34.5 -10zM261 56q0 -29 -20.5 -49.5t-49.5 -20.5t-49.5 20.5t-20.5 49.5t20.5 49.5t49.5 20.5t49.5 -20.5t20.5 -49.5z" />
    <glyph glyph-name="at" unicode="@" horiz-adv-x="944" 
d="M770 -48l12 -29q2 -5 2 -8q0 -25 -121.5 -58t-226.5 -33q-174 0 -271.5 97t-97.5 259q0 133 63.5 243t172 173t237.5 63q153 0 244 -79t91 -216q0 -140 -80 -227.5t-167 -87.5q-81 0 -84 90h-2q-61 -89 -137 -89q-41 0 -63.5 31t-22.5 83q0 37 10.5 80.5t31 86.5t56.5 71
t81 28q23 0 41 -8t22.5 -13t17.5 -19l10 24q3 6 10 6h45q6 0 6 -5q0 -1 -1 -5t-1 -6l-48 -224q-3 -14 -3 -26q0 -50 41 -50q62 0 117 72t55 186q0 110 -70 174.5t-199 64.5q-169 0 -287 -120t-118 -298q0 -142 78.5 -221.5t233.5 -79.5q83 0 156.5 19.5t114 39t41.5 19.5
q7 0 10 -8zM548 256l17 82q-40 34 -71 34q-33 0 -58 -40t-35 -85t-10 -80q0 -55 36 -55q42 0 88 59q10 13 20.5 42.5t12.5 42.5z" />
    <glyph glyph-name="A" unicode="A" horiz-adv-x="611" 
d="M387 274l-60 221q-16 54 -23 95h-2q-7 -39 -21 -95l-61 -221h167zM597 53v-41q0 -12 -12 -12h-202q-12 0 -12 12v41q0 12 12 12h62l-39 139h-205l-38 -139h64q12 0 12 -12v-41q0 -12 -12 -12h-201q-12 0 -12 12v41q0 12 12 12h49l186 609q2 8 4.5 9.5t10.5 1.5h59
q11 0 15 -11l185 -609h50q12 0 12 -12z" />
    <glyph glyph-name="B" unicode="B" horiz-adv-x="556" 
d="M197 383h63q26 0 46 4t41 16.5t33 40t12 69.5q0 61 -29 81.5t-82 20.5h-84v-232zM197 70h89q130 0 130 122q0 124 -135 124h-84v-246zM52 685h231q29 0 50.5 -2t51.5 -11t49.5 -25.5t33.5 -48.5t14 -76q0 -112 -99 -163q23 -7 41 -16.5t38.5 -28t32 -50.5t11.5 -75
q0 -93 -66 -151q-27 -23 -67.5 -30.5t-107.5 -7.5h-213q-12 0 -12 12v41q0 12 12 12h63v555h-63q-12 0 -12 12v41q0 12 12 12z" />
    <glyph glyph-name="C" unicode="C" horiz-adv-x="481" 
d="M441 167v-104q0 -19 -9 -26q-25 -21 -69.5 -36t-80.5 -15q-62 0 -107.5 27t-71.5 77t-38.5 114t-12.5 145q0 350 222 350q83 0 152 -50q10 -8 10 -19v-111q0 -12 -11 -12h-46q-11 0 -11 12v85q-47 28 -92 28q-76 0 -105 -68t-29 -205q0 -306 142 -306q40 0 89 28v86
q0 12 11 12h46q11 0 11 -12z" />
    <glyph glyph-name="D" unicode="D" horiz-adv-x="574" 
d="M197 70h62q100 0 136.5 70.5t36.5 212.5q0 107 -22 165.5t-58.5 77.5t-99.5 19h-55v-545zM52 685h201q48 0 82 -5.5t72 -25.5t61 -55.5t38.5 -98.5t15.5 -151q0 -182 -64.5 -265.5t-215.5 -83.5h-190q-12 0 -12 12v41q0 12 12 12h63v555h-63q-12 0 -12 12v41q0 12 12 12z
" />
    <glyph glyph-name="E" unicode="E" horiz-adv-x="481" 
d="M449 160v-146q0 -9 -3 -11.5t-11 -2.5h-383q-12 0 -12 12v41q0 12 12 12h63v555h-63q-12 0 -12 12v41q0 12 12 12h377q8 0 10.5 -3t2.5 -11v-136q0 -12 -11 -12h-46q-11 0 -11 12v80h-177v-222h196q8 0 10.5 -2.5t2.5 -10.5v-44q0 -8 -2.5 -10.5t-10.5 -2.5h-196v-253
h184v90q0 11 11 11h45q12 0 12 -11z" />
    <glyph glyph-name="F" unicode="F" horiz-adv-x="463" 
d="M197 65h74q12 0 12 -12v-41q0 -12 -12 -12h-219q-12 0 -12 12v41q0 12 12 12h63v555h-63q-12 0 -12 12v41q0 12 12 12h377q8 0 10.5 -3t2.5 -11v-136q0 -12 -11 -12h-46q-11 0 -11 12v80h-177v-229h196q8 0 10.5 -2.5t2.5 -10.5v-44q0 -8 -2.5 -10.5t-10.5 -2.5h-196
v-251z" />
    <glyph glyph-name="G" unicode="G" horiz-adv-x="556" 
d="M468 282v-217q0 -21 -2 -28.5t-12 -13.5q-61 -37 -162 -37q-65 0 -112 27t-74.5 77t-40.5 114.5t-13 144.5q0 155 56.5 252.5t175.5 97.5q86 0 159 -50q10 -8 10 -19v-111q0 -12 -11 -12h-46q-11 0 -11 12v85q-51 28 -99 28q-144 0 -144 -273q0 -306 152 -306q52 0 92 19
v210h-80q-12 0 -12 12v41q0 12 12 12h218q12 0 12 -12v-41q0 -12 -12 -12h-56z" />
    <glyph glyph-name="H" unicode="H" horiz-adv-x="648" 
d="M609 53v-41q0 -12 -12 -12h-208q-12 0 -12 12v41q0 12 12 12h63v256h-256v-256h63q12 0 12 -12v-41q0 -12 -12 -12h-208q-12 0 -12 12v41q0 12 12 12h63v555h-63q-12 0 -12 12v41q0 12 12 12h208q12 0 12 -12v-41q0 -12 -12 -12h-63v-229h256v229h-63q-12 0 -12 12v41
q0 12 12 12h208q12 0 12 -12v-41q0 -12 -12 -12h-63v-555h63q12 0 12 -12z" />
    <glyph glyph-name="I" unicode="I" horiz-adv-x="333" 
d="M311 53v-41q0 -12 -12 -12h-264q-12 0 -12 12v41q0 12 12 12h91v555h-91q-12 0 -12 12v41q0 12 12 12h264q12 0 12 -12v-41q0 -12 -12 -12h-91v-555h91q12 0 12 -12z" />
    <glyph glyph-name="J" unicode="J" horiz-adv-x="444" 
d="M366 672v-503q0 -88 -48.5 -135.5t-135.5 -47.5q-50 0 -85.5 16.5t-54.5 45t-27.5 60.5t-8.5 70q0 18 9 18h59q8 0 8 -10v-8q0 -125 101 -125t101 116v446h-175q-12 0 -12 12v46q0 12 12 12h243q9 0 11.5 -2.5t2.5 -10.5z" />
    <glyph glyph-name="K" unicode="K" horiz-adv-x="574" 
d="M560 53v-41q0 -12 -12 -12h-191q-12 0 -12 12v41q0 12 12 12h48l-207 264h-2v-264h63q12 0 12 -12v-41q0 -12 -12 -12h-208q-12 0 -12 12v41q0 12 12 12h63v555h-63q-12 0 -12 12v41q0 12 12 12h208q12 0 12 -12v-41q0 -12 -12 -12h-63v-279h2l210 279h-49q-12 0 -12 12
v41q0 12 12 12h183q12 0 12 -12v-41q0 -12 -12 -12h-45l-218 -280l220 -275h49q12 0 12 -12z" />
    <glyph glyph-name="L" unicode="L" horiz-adv-x="481" 
d="M479 138l-46 -127q-4 -11 -15 -11h-366q-12 0 -12 12v41q0 12 12 12h63v555h-63q-12 0 -12 12v41q0 12 12 12h208q12 0 12 -12v-41q0 -12 -12 -12h-63v-550h180l35 98q3 8 9 8q2 0 6 -1.5t6 -1.5l41 -15q8 -3 8 -10q0 -1 -3 -10z" />
    <glyph glyph-name="M" unicode="M" horiz-adv-x="704" 
d="M679 53v-41q0 -12 -12 -12h-205q-12 0 -12 12v41q0 12 12 12h70l-13 430q-1 5 -1 50l1 45h-2q-2 -41 -12 -71l-120 -348q-4 -11 -15 -11h-30q-11 0 -15 11l-116 348q-10 30 -12 71h-2v-95l-13 -430h70q12 0 12 -12v-41q0 -12 -12 -12h-205q-12 0 -12 12v41q0 12 12 12h56
l31 555h-70q-12 0 -12 12v41q0 12 12 12h148q10 0 13 -10l118 -345q8 -23 13 -62h2q5 40 13 62l118 345q3 10 13 10h148q12 0 12 -12v-41q0 -12 -12 -12h-70l31 -555h56q12 0 12 -12z" />
    <glyph glyph-name="N" unicode="N" horiz-adv-x="574" 
d="M493 620v-598q0 -2 0.5 -6.5t0.5 -6.5t-1 -4.5t-4 -3.5t-8 -1h-55q-10 0 -16 10l-230 494q-19 41 -27 87l-2 -2q10 -47 10 -89v-435h65q12 0 12 -12v-41q0 -12 -12 -12h-201q-12 0 -12 12v41q0 12 12 12h63v555h-63q-12 0 -12 12v41q0 12 12 12h140q11 0 15 -9l221 -466
q5 -11 9 -22.5t8 -28t7 -26.5l2 2l-7 49v436h-65q-12 0 -12 12v41q0 12 12 12h202q12 0 12 -12v-41q0 -12 -12 -12h-64z" />
    <glyph glyph-name="O" unicode="O" horiz-adv-x="556" 
d="M504 343q0 -167 -55 -262t-171 -95t-171 94.5t-55 262.5t55 262t171 94q115 0 170.5 -94.5t55.5 -261.5zM278 53q79 0 107.5 72.5t28.5 217.5q0 70 -5.5 119.5t-20 89.5t-42 60t-68.5 20t-68 -20t-41.5 -60t-20.5 -89.5t-6 -119.5q0 -145 28.5 -217.5t107.5 -72.5z" />
    <glyph glyph-name="P" unicode="P" 
d="M197 359h65q66 0 103.5 29t37.5 113q0 39 -11 64t-33 35t-39.5 12.5t-45.5 2.5h-77v-256zM283 53v-41q0 -12 -12 -12h-219q-12 0 -12 12v41q0 12 12 12h63v555h-63q-12 0 -12 12v41q0 12 12 12h230q31 0 51.5 -1.5t52 -11.5t51 -28t34 -54t14.5 -87q0 -61 -18.5 -104.5
t-50.5 -66.5t-68 -33t-79 -10h-72v-224h74q12 0 12 -12z" />
    <glyph glyph-name="Q" unicode="Q" horiz-adv-x="556" 
d="M543 -31l-53 -36q-4 -3 -9 -3q-14 0 -51 31.5t-53 50.5q-52 -26 -105 -26q-112 0 -166 92.5t-54 262.5q0 168 56.5 263t174.5 95q220 0 220 -356q0 -179 -68 -279q27 -29 82 -63q4 -2 8 -4.5t6 -4t5 -3t4.5 -3t3 -2.5t2 -2l1 -2t0.5 -2q0 -5 -4 -9zM277 53
q77 0 106.5 74.5t29.5 212.5q0 142 -30 217t-104 75q-41 0 -69 -21t-42.5 -61.5t-20 -89t-5.5 -115.5q0 -142 30 -217t105 -75z" />
    <glyph glyph-name="R" unicode="R" horiz-adv-x="556" 
d="M197 377h65q66 0 103.5 25.5t37.5 98.5q0 39 -11 64t-33 35t-39.5 12.5t-45.5 2.5h-77v-238zM555 53v-41q0 -12 -12 -12h-98q-13 0 -18 11l-158 301h-72v-247h64q12 0 12 -12v-41q0 -12 -12 -12h-209q-12 0 -12 12v41q0 12 12 12h63v555h-63q-12 0 -12 12v41q0 12 12 12
h230q31 0 51.5 -1.5t52 -11.5t51 -28t34 -54t14.5 -87q0 -66 -35.5 -117t-96.5 -67l141 -254h49q12 0 12 -12z" />
    <glyph glyph-name="S" unicode="S" horiz-adv-x="481" 
d="M353 525v81q-52 21 -99 21t-76.5 -25t-29.5 -73q0 -36 23 -65t51.5 -44.5t70.5 -38t66 -42.5q81 -66 81 -157q0 -90 -59.5 -143t-152.5 -53q-40 0 -90 11.5t-86 32.5q-10 6 -10 23v116q0 12 12 12h45q11 0 11 -12v-82q80 -29 121 -29q55 0 87 31.5t32 82.5q0 14 -2 26
t-8.5 23t-11 19.5t-16.5 18.5t-17 15t-21.5 15.5t-21.5 13.5t-24.5 14t-23.5 13q-34 19 -54.5 33.5t-44.5 37.5t-35.5 52.5t-11.5 66.5q0 83 58.5 131t140.5 48q53 0 99 -15t59 -28q6 -6 6 -21v-110q0 -12 -12 -12h-45q-11 0 -11 12z" />
    <glyph glyph-name="T" unicode="T" horiz-adv-x="481" 
d="M366 53v-41q0 -12 -12 -12h-224q-12 0 -12 12v41q0 12 12 12h71v550h-106v-113q0 -12 -12 -12h-44q-12 0 -12 12v170q0 13 14 13h403q13 0 13 -14v-169q0 -12 -11 -12h-46q-11 0 -11 12v113h-106v-550h71q12 0 12 -12z" />
    <glyph glyph-name="U" unicode="U" horiz-adv-x="611" 
d="M522 620v-436q0 -93 -54.5 -145.5t-165.5 -52.5q-207 0 -207 198v436h-64q-12 0 -12 12v41q0 12 12 12h210q12 0 12 -12v-41q0 -12 -12 -12h-64v-434q0 -68 27.5 -100.5t98.5 -32.5q137 0 137 133v434h-64q-12 0 -12 12v41q0 12 12 12h210q12 0 12 -12v-41q0 -12 -12 -12
h-64z" />
    <glyph glyph-name="V" unicode="V" horiz-adv-x="537" 
d="M482 620l-165 -609q-3 -11 -15 -11h-70q-13 0 -15 11l-163 609h-41q-12 0 -12 12v42q0 11 12 11h188q11 0 11 -11v-42q0 -12 -11 -12h-60l111 -466q11 -50 14 -80h2q5 40 15 78l115 468h-54q-12 0 -12 12v42q0 11 12 11h175q12 0 12 -11v-42q0 -12 -12 -12h-37z" />
    <glyph glyph-name="W" unicode="W" horiz-adv-x="759" 
d="M689 620l-128 -608q-2 -12 -10 -12h-75q-8 0 -10 12l-84 546h-2l-104 -546q-2 -12 -9 -12h-72q-10 0 -10 12l-116 608h-43q-11 0 -11 15v40q0 10 11 10h189q11 0 11 -14v-35q0 -16 -11 -16h-65l76 -433q0 -1 8 -107h2q7 89 12 113l96 480q0 12 9 12h63q6 0 10 -12
l83 -494q10 -65 10 -103h2q1 10 1.5 33.5t1.5 40.5t4 30l81 440h-63q-11 0 -11 11v42q0 12 11 12h186q12 0 12 -11v-42q0 -12 -12 -12h-43z" />
    <glyph glyph-name="X" unicode="X" horiz-adv-x="556" 
d="M543 53v-41q0 -12 -12 -12h-193q-11 0 -11 12v41q0 12 11 12h55l-95 179q-9 17 -21 47q-8 -20 -20 -46l-95 -180h54q11 0 11 -12v-41q0 -12 -11 -12h-191q-12 0 -12 12v41q0 12 12 12h47l158 292l-144 263h-46q-12 0 -12 12v42q0 11 12 11h193q11 0 11 -11v-42
q0 -12 -11 -12h-57l78 -143q4 -7 25 -52q15 36 26 56l74 139h-48q-11 0 -11 12v42q0 11 11 11h183q11 0 11 -11v-42q0 -12 -11 -12h-46l-146 -260l163 -295h46q12 0 12 -12z" />
    <glyph glyph-name="Y" unicode="Y" horiz-adv-x="537" 
d="M394 53v-41q0 -12 -12 -12h-222q-12 0 -12 12v41q0 12 12 12h70v224l-176 331h-37q-12 0 -12 12v42q0 11 12 11h193q11 0 11 -11v-42q0 -12 -11 -12h-60l99 -202q11 -20 26 -52q7 19 28 62l90 192h-62q-11 0 -11 12v42q0 11 11 11h194q11 0 11 -11v-42q0 -12 -11 -12h-43
l-170 -329v-226h70q12 0 12 -12z" />
    <glyph glyph-name="Z" unicode="Z" horiz-adv-x="481" 
d="M472 122l-40 -110q-5 -12 -16 -12h-360q-8 0 -11 2.5t-3 11.5v52l294 549h-201v-75q0 -12 -13 -12h-43q-12 0 -12 12v131q0 14 15 14h337q8 0 10.5 -2.5t2.5 -10.5v-49l-296 -553h240l29 82q3 8 10 8q4 0 10 -3l42 -15q8 -3 8 -9q0 -1 -0.5 -3t-1.5 -4.5t-1 -3.5z" />
    <glyph glyph-name="bracketleft" unicode="[" horiz-adv-x="370" 
d="M316 -152v-38q0 -12 -12 -12h-174q-9 0 -11.5 2.5t-2.5 11.5v891q0 9 2.5 11.5t11.5 2.5h174q12 0 12 -12v-38q0 -12 -12 -12h-112v-795h112q12 0 12 -12z" />
    <glyph glyph-name="backslash" unicode="\" 
d="M128 713l384 -898q0 -1 1 -3q2 -4 2 -6q0 -8 -13 -8h-39q-12 0 -16 10l-384 898q-4 8 -4 12q0 6 12 6h40q13 0 17 -11z" />
    <glyph glyph-name="bracketright" unicode="]" horiz-adv-x="370" 
d="M255 703v-891q0 -9 -2.5 -11.5t-11.5 -2.5h-174q-12 0 -12 12v38q0 12 12 12h112v795h-112q-12 0 -12 12v38q0 12 12 12h174q9 0 11.5 -2.5t2.5 -11.5z" />
    <glyph glyph-name="asciicircum" unicode="^" 
d="M291 677l143 -319q3 -5 5 -13q0 -6 -10 -8l-44 -13q-6 -2 -9 -2q-6 0 -10 7l-116 258l-115 -258q-3 -7 -10 -7q-3 0 -9 2l-44 13q-10 2 -10 8q2 8 5 13l143 319q5 8 16 8h49q11 0 16 -8z" />
    <glyph glyph-name="underscore" unicode="_" 
d="M0 -125v50h500v-50h-500z" />
    <glyph glyph-name="grave" unicode="`" horiz-adv-x="308" 
d="M104 703l145 -112q8 -8 8 -9q0 -2 -5 -10l-9 -14q-5 -8 -9 -8q-5 0 -10 3l-164 85q-9 4 -9 9q0 4 4 10l29 43q8 8 10 8z" />
    <glyph glyph-name="a" unicode="a" horiz-adv-x="463" 
d="M84 400l-13 35q-3 7 -3 13q0 13 54.5 29.5t101.5 16.5q154 0 154 -140v-192q0 -63 12 -100h47q12 0 12 -12v-38q0 -12 -12 -12h-85q-5 0 -9.5 2t-8 6t-6 7.5t-5 10t-4 9.5t-3.5 10t-2 8q-1 -1 -6.5 -6t-9.5 -9t-13 -11t-16.5 -12t-19.5 -10.5t-23.5 -9.5t-26 -6.5
t-29.5 -2.5q-60 0 -95 37.5t-35 103.5q0 35 12 63t28.5 45.5t44 30.5t47.5 19t51.5 10t43.5 4.5t35 1.5v36q0 46 -19 68t-70 22q-30 0 -58 -8t-45 -16t-19 -8q-5 0 -7 5zM302 110v129q-20 0 -30 -1t-37 -3.5t-43.5 -9.5t-36 -18t-29.5 -30t-10 -44q0 -34 18.5 -59.5
t53.5 -25.5q12 0 25.5 4t23 8.5t22 13.5t18 13.5t15.5 13.5z" />
    <glyph glyph-name="b" unicode="b" 
d="M160 377v-286q55 -38 104 -38q34 0 55.5 18.5t31.5 53.5t13 67.5t3 79.5q0 34 -2.5 57.5t-11 48t-27.5 37t-48 12.5q-68 0 -118 -50zM160 705v-262q21 21 57 36t70 15q85 0 123.5 -61.5t38.5 -162.5q0 -79 -14 -139t-54 -102.5t-103 -42.5q-89 0 -139 49q-18 -49 -33 -49
q-5 0 -13 6l-25 16q-15 9 -15 14q0 2 2 5.5t6 10t7 13.5q16 28 16 71v533h-65q-12 0 -12 12v38q0 12 12 12h129q12 0 12 -12z" />
    <glyph glyph-name="c" unicode="c" horiz-adv-x="426" 
d="M373 88l17 -42q0 -1 1.5 -3.5t1.5 -4.5q0 -6 -23.5 -18t-62 -23t-72.5 -11q-89 0 -138.5 64.5t-49.5 174.5q0 125 55 197t148 72q32 0 73.5 -12.5t62.5 -30.5q3 -3 3 -15v-86q0 -12 -11 -12h-43q-11 0 -11 12v58q-31 19 -68 19q-70 0 -98.5 -47.5t-28.5 -139.5
q0 -187 115 -187q29 0 58 10.5t46.5 20.5t18.5 10q2 0 6 -6z" />
    <glyph glyph-name="d" unicode="d" horiz-adv-x="519" 
d="M496 50v-38q0 -12 -12 -12h-90q-9 0 -15.5 5.5t-9 11.5t-6 16t-4.5 12q-69 -59 -152 -59q-77 0 -116.5 71t-39.5 173q0 116 41.5 190t125.5 74q77 0 127 -34v195h-64q-12 0 -12 12v38q0 12 12 12h128q12 0 12 -12v-580q0 -30 6 -63h57q12 0 12 -12zM345 112v282
q-44 33 -118 33q-30 0 -50 -16t-29 -46t-12 -60.5t-3 -72.5q0 -37 3 -64.5t11.5 -56t27 -43.5t46.5 -15q61 0 124 59z" />
    <glyph glyph-name="e" unicode="e" horiz-adv-x="463" 
d="M124 286h216q0 32 -7 62t-32 57t-65 27q-32 0 -56 -15.5t-35 -39.5t-16 -46.5t-5 -44.5zM391 88l17 -42q0 -1 1.5 -3.5t1.5 -4.5q0 -6 -23.5 -18t-62 -23t-72.5 -11q-99 1 -155 70t-56 184q0 112 53.5 183t144.5 71q182 0 182 -248q0 -22 -11 -22h-287q0 -27 6 -53.5
t20 -54.5t43 -45.5t69 -17.5q29 0 58 10.5t46.5 20.5t18.5 10q2 0 6 -6z" />
    <glyph glyph-name="f" unicode="f" horiz-adv-x="333" 
d="M188 62h70q12 0 12 -12v-38q0 -12 -12 -12h-202q-12 0 -12 12v38q0 12 12 12h56v356h-70q-7 0 -7 12v38q0 12 7 12h70v78q0 33 4.5 58.5t18 52t43 41t73.5 14.5q35 0 72.5 -12t37.5 -23q0 -1 -1 -3t-2 -5l-2 -6l-14 -33q-4 -6 -7 -6q-5 0 -34 10.5t-53 10.5
q-27 0 -40.5 -14.5t-16.5 -33t-3 -52.5v-77h144q11 0 11 -7q0 -1 -0.5 -3t-0.5 -4l-13 -39q-4 -9 -13 -9h-128v-356z" />
    <glyph glyph-name="g" unicode="g" 
d="M413 347v-154q0 -28 3.5 -114t3.5 -113q0 -77 -41 -126.5t-135 -49.5q-54 0 -111 19t-57 34q0 5 4 13l16 34q2 6 7 6q2 0 22 -10t52.5 -19.5t62.5 -9.5q63 0 83.5 29t20.5 79q0 30 -1.5 66t-1.5 37q-67 -55 -136 -55q-70 0 -112 58.5t-42 162.5q0 121 47.5 190.5
t140.5 69.5q62 0 118 -43q15 43 29 43q5 0 9 -2l45 -28q4 -3 4 -6t-2.5 -7t-7 -12t-8.5 -18q-13 -36 -13 -74zM337 130v270q-57 27 -92 27q-56 0 -84 -46t-28 -128q0 -85 19.5 -129t67.5 -44q11 0 21.5 1.5t21 5.5t18 7t17.5 9.5t14 9t14 10t11 7.5z" />
    <glyph glyph-name="h" unicode="h" horiz-adv-x="556" 
d="M526 50v-38q0 -12 -12 -12h-120q-12 0 -12 12v334q0 81 -65 81t-134 -61v-304h56q12 0 12 -12v-38q0 -12 -12 -12h-189q-12 0 -12 12v38q0 12 12 12h57v593h-60q-12 0 -12 12v38q0 12 12 12h122q14 0 14 -15v-273q80 65 156 65q40 0 65.5 -12.5t36 -36.5t14 -46t3.5 -55
v-282h56q12 0 12 -12z" />
    <glyph glyph-name="i" unicode="i" horiz-adv-x="278" 
d="M265 50v-38q0 -12 -12 -12h-219q-12 0 -12 12v38q0 12 12 12h72v356h-79q-12 0 -12 12v38q0 12 12 12h142q13 0 13 -15v-403h71q12 0 12 -12zM199 656q0 -25 -18 -43t-43 -18q-26 0 -43.5 17.5t-17.5 43.5t17.5 43.5t43.5 17.5q25 0 43 -18t18 -43z" />
    <glyph glyph-name="j" unicode="j" horiz-adv-x="278" 
d="M193 465v-518q0 -157 -146 -157q-40 0 -81.5 14.5t-41.5 24.5q0 4 2 8l18 40q5 7 8 7q2 0 16 -7t37 -13.5t45 -6.5q19 0 32 6.5t20 14.5t10.5 24.5t4 28.5t0.5 34v453h-79q-12 0 -12 12v38q0 12 12 12h142q13 0 13 -15zM210 656q0 -25 -18 -43t-43 -18t-43 17.5t-18 43.5
t18 43.5t43 17.5t43 -18t18 -43z" />
    <glyph glyph-name="k" unicode="k" horiz-adv-x="519" 
d="M500 50v-38q0 -12 -11 -12h-93q-10 0 -17 8l-202 238v-184h56q12 0 12 -12v-38q0 -12 -12 -12h-189q-12 0 -12 12v38q0 12 12 12h57v593h-60q-12 0 -12 12v38q0 12 12 12h122q14 0 14 -15v-442l158 162h-49q-12 0 -12 11v35q0 12 12 12h190q12 0 12 -12v-38
q0 -12 -12 -12h-51l-162 -158l174 -198h52q11 0 11 -12z" />
    <glyph glyph-name="l" unicode="l" horiz-adv-x="278" 
d="M260 55l13 -37q2 -4 2 -7q0 -8 -28.5 -16.5t-56.5 -8.5q-73 0 -94 48q-14 31 -14 145v476h-60q-12 0 -12 12v38q0 12 12 12h122q14 0 14 -15v-525q0 -76 3 -94q2 -12 11.5 -23.5t28.5 -11.5q15 0 33 6.5t19 6.5q5 0 7 -6z" />
    <glyph glyph-name="m" unicode="m" horiz-adv-x="759" 
d="M730 50v-38q0 -12 -12 -12h-120q-12 0 -12 12v334q0 81 -65 81q-14 0 -26 -2.5t-24 -8.5t-17.5 -9t-17.5 -12l-12 -9v-324h56q12 0 12 -12v-38q0 -12 -12 -12h-120q-12 0 -12 12v334q0 81 -66 81q-45 0 -96 -42v-323h57q12 0 12 -12v-38q0 -12 -12 -12h-190q-12 0 -12 12
v38q0 12 12 12h57v293q0 30 -6 63h-57q-12 0 -12 12v38q0 12 12 12h96q15 0 20.5 -11t10.5 -34q22 20 61.5 39.5t68.5 19.5q81 0 106 -60q82 60 133 60q40 0 65.5 -12.5t36 -36.5t14 -46t3.5 -55v-282h56q12 0 12 -12z" />
    <glyph glyph-name="n" unicode="n" horiz-adv-x="556" 
d="M526 50v-38q0 -12 -12 -12h-120q-12 0 -12 12v334q0 81 -65 81q-30 0 -59 -12.5t-40 -21.5t-32 -27v-304h57q12 0 12 -12v-38q0 -12 -12 -12h-190q-12 0 -12 12v38q0 12 12 12h57v293q0 30 -6 63h-57q-12 0 -12 12v38q0 12 12 12h100q6 0 11 -3.5t8.5 -11.5t5 -13t4 -15
t2.5 -11q25 20 41 30.5t50.5 24t69.5 13.5q40 0 65.5 -12.5t36 -36.5t14 -46t3.5 -55v-282h56q12 0 12 -12z" />
    <glyph glyph-name="o" unicode="o" 
d="M449 243q0 -113 -50.5 -185t-154.5 -72q-97 0 -145 69t-48 183q0 112 50 184t153 72q98 0 146.5 -69t48.5 -182zM251 48q116 0 116 196q0 83 -27 135.5t-90 52.5q-117 0 -117 -185q0 -199 118 -199z" />
    <glyph glyph-name="p" unicode="p" horiz-adv-x="519" 
d="M260 -152v-38q0 -12 -12 -12h-197q-12 0 -12 12v38q0 12 12 12h57v495q0 35 -6 63h-57q-12 0 -12 12v38q0 12 12 12h90q9 0 15.5 -5.5t9 -11.5t6 -16t4.5 -12l7 5q7 6 9.5 8t10 7.5t12.5 8t13.5 7.5t15 7.5t16.5 6t18.5 5t19 3t21.5 1.5q156 0 156 -244q0 -116 -42 -190
t-125 -74q-26 0 -52 9t-35.5 15t-30.5 20v-170h64q12 0 12 -12zM184 378v-282q62 -43 109 -43q25 0 43 11.5t27.5 28.5t15 45t7 52t1.5 58q0 38 -2.5 64.5t-11 55.5t-27 44t-47.5 15q-43 0 -115 -49z" />
    <glyph glyph-name="q" unicode="q" 
d="M488 -152v-38q0 -12 -12 -12h-197q-12 0 -12 12v38q0 12 12 12h64v185q-70 -59 -129 -59q-84 0 -124 73.5t-40 190.5q0 101 47.5 172.5t136.5 71.5q67 0 129 -48q3 5 9 18.5t11.5 21.5t9.5 8q2 0 10 -4l35 -20q8 -5 8 -9q0 -3 -3 -10t-8 -17t-7 -18q-9 -30 -9 -61v-495
h57q12 0 12 -12zM343 111v277q-65 39 -105 39q-106 0 -106 -179q0 -195 96 -195q48 0 115 58z" />
    <glyph glyph-name="r" unicode="r" horiz-adv-x="352" 
d="M261 50v-38q0 -12 -12 -12h-196q-12 0 -12 12v38q0 12 12 12h57v293q0 30 -11 63h-54q-12 0 -12 12v38q0 12 12 12h90q5 0 9 -1.5t7 -5l6 -7t5 -9.5t3.5 -9.5t3.5 -11t2.5 -10t2.5 -9.5l1 -7l20 23q20 23 29 31t30 19t41 11q18 0 33.5 -5t15.5 -12q0 -1 -1.5 -4t-1.5 -4
l-22 -51q-3 -7 -6 -7q-1 0 -11.5 4.5t-21.5 4.5q-12 0 -26.5 -9.5t-24 -19t-24.5 -27.5t-19 -22v-280h63q12 0 12 -12z" />
    <glyph glyph-name="s" unicode="s" horiz-adv-x="389" 
d="M271 361v55q-26 13 -65 13q-32 0 -53 -16.5t-21 -49.5q0 -30 23 -51t55.5 -35t65 -30t55.5 -46t23 -73q0 -67 -46 -104.5t-114 -37.5q-46 0 -99 17t-53 33v93q0 11 11 11h43q11 0 11 -11v-59q62 -19 91 -19q34 0 57 19t23 53q0 28 -23 48.5t-55.5 35t-65 31t-55.5 46
t-23 71.5q0 61 42.5 100t108.5 39q25 0 61.5 -9.5t56.5 -20.5q11 -6 11 -16v-87q0 -12 -12 -12h-41q-12 0 -12 12z" />
    <glyph glyph-name="t" unicode="t" horiz-adv-x="370" 
d="M340 74l11 -37q2 -8 2 -10q0 -10 -45 -25.5t-84 -15.5q-66 0 -94 35q-29 31 -29 113v284h-75q-7 0 -7 12v38q0 12 7 12h75v137q0 9 11 12l53 15q2 0 4 0.5t3 0.5q5 0 5 -11v-154h148q11 0 11 -7q0 -1 -0.5 -3t-0.5 -4l-13 -39q-4 -9 -13 -9h-132v-284q0 -16 0.5 -24
t3.5 -21t9 -19.5t18 -11.5t29 -5q21 0 42.5 6.5t36 13.5t17.5 7q7 0 7 -6z" />
    <glyph glyph-name="u" unicode="u" horiz-adv-x="537" 
d="M517 50v-38q0 -12 -12 -12h-84q-13 0 -21 7t-14 22t-7 16q-72 -59 -139 -59q-48 0 -79.5 12.5t-45 36.5t-17.5 46t-4 55v282h-56q-12 0 -12 12v38q0 12 12 12h120q12 0 12 -12v-334q0 -81 82 -81q53 0 114 51v314h-57q-12 0 -12 12v38q0 12 12 12h121q12 0 12 -12v-343
q0 -27 6 -63h57q12 0 12 -12z" />
    <glyph glyph-name="v" unicode="v" horiz-adv-x="481" 
d="M436 418l-165 -423q-4 -9 -13 -9h-39q-8 0 -12 9l-153 423h-33q-12 0 -12 12v38q0 12 12 12h170q11 0 11 -12v-35q0 -11 -11 -11h-56l88 -268q7 -20 18 -63h2q7 32 18 62l97 269h-60q-11 0 -11 11v35q0 12 11 12h167q12 0 12 -12v-38q0 -12 -12 -12h-29z" />
    <glyph glyph-name="w" unicode="w" horiz-adv-x="667" 
d="M137 422l57 -273q7 -28 10 -55h2q7 44 11 55l95 322q3 9 14 9h38q8 0 12 -10l82 -334q3 -13 7 -39h2q2 19 6 39l71 286h-54q-11 0 -11 11v35q0 12 11 12h164q11 0 11 -12v-38q0 -12 -11 -12h-40l-119 -422q-3 -10 -12 -10h-39q-10 0 -13 10l-79 310q-6 25 -11 79h-2
q-4 -39 -15 -78l-94 -312q-2 -9 -11 -9h-40q-9 0 -11 10l-103 422h-38q-11 0 -11 12v38q0 12 11 12h175q12 0 12 -12v-35q0 -11 -12 -11h-65z" />
    <glyph glyph-name="x" unicode="x" 
d="M476 50v-38q0 -12 -12 -12h-161q-11 0 -11 12v35q0 11 11 11h37l-61 93q-20 32 -26 42q-8 -14 -27 -41l-66 -94h46q12 0 12 -11v-35q0 -12 -12 -12h-170q-11 0 -11 12v38q0 12 11 12h38l140 183l-122 173h-46q-11 0 -11 12v38q0 12 11 12h168q12 0 12 -12v-35
q0 -11 -12 -11h-38l47 -72q9 -15 30 -48q4 6 15 23t17 25l50 72h-38q-12 0 -12 11v35q0 12 12 12h156q11 0 11 -12v-38q0 -12 -11 -12h-36l-124 -165l134 -191h37q12 0 12 -12z" />
    <glyph glyph-name="y" unicode="y" 
d="M446 418l-103 -356q-39 -133 -69 -199q-16 -33 -47 -53t-71 -20t-83 19t-43 31q0 2 2 6l20 40q2 5 7 5q1 0 34 -19.5t62 -19.5q49 0 76 85l21 63h-36q-9 0 -13 9l-144 409h-40q-12 0 -12 12v38q0 12 12 12h183q12 0 12 -12v-35q0 -11 -12 -11h-64l109 -321q9 -27 20 -72
h2q7 43 15 70l84 323h-60q-11 0 -11 11v35q0 12 11 12h175q12 0 12 -12v-38q0 -12 -12 -12h-37z" />
    <glyph glyph-name="z" unicode="z" horiz-adv-x="444" 
d="M423 109l-40 -100q-3 -9 -13 -9h-312q-8 0 -9.5 2t-1.5 10v40l251 363h-165v-68q0 -12 -12 -12h-42q-12 0 -12 12v121q0 8 2.5 10t9.5 2h302q7 0 9.5 -2t2.5 -10v-41l-249 -362h187l31 77q3 8 9 8q3 0 9 -2l40 -16q8 -3 8 -10z" />
    <glyph glyph-name="braceleft" unicode="{" horiz-adv-x="426" 
d="M374 -154v-34q0 -9 -3 -11.5t-11 -2.5h-20q-82 0 -124 34.5t-42 117.5v195q0 46 -20 67.5t-68 21.5h-20q-9 0 -11.5 3t-2.5 11v34q0 8 2.5 11t11.5 3h19q48 0 68.5 21t20.5 68v178q0 85 42.5 119.5t123.5 34.5h20q8 0 11 -2.5t3 -11.5v-34q0 -9 -3 -11.5t-11 -2.5h-17
q-52 0 -72.5 -20.5t-20.5 -70.5v-178q0 -52 -16.5 -77t-52.5 -43q37 -21 53 -45t16 -77v-195q0 -47 20 -68t67 -21h23q8 0 11 -2.5t3 -11.5z" />
    <glyph glyph-name="bar" unicode="|" horiz-adv-x="304" 
d="M188 736v-972q0 -9 -2 -11.5t-11 -2.5h-46q-9 0 -11 2.5t-2 11.5v972q0 14 13 14h46q13 0 13 -14z" />
    <glyph glyph-name="braceright" unicode="}" horiz-adv-x="426" 
d="M52 669v34q0 9 3 11.5t11 2.5h20q82 0 124 -34.5t42 -117.5v-195q0 -46 20 -67.5t68 -21.5h20q9 0 11.5 -3t2.5 -11v-34q0 -8 -2.5 -11t-11.5 -3h-19q-48 0 -68.5 -21t-20.5 -68v-178q0 -85 -42.5 -119.5t-123.5 -34.5h-20q-8 0 -11 2.5t-3 11.5v34q0 9 3 11.5t11 2.5h17
q52 0 72.5 20.5t20.5 70.5v178q0 52 16.5 77t52.5 43q-37 21 -53 45t-16 77v195q0 47 -20 68t-67 21h-23q-8 0 -11 2.5t-3 11.5z" />
    <glyph glyph-name="asciitilde" unicode="~" 
d="M457 328h46q0 -61 -33 -112t-96 -51q-51 0 -118 42l-57 34q-56 32 -89 32q-68 0 -75 -90h-46q0 22 6 47t19.5 53t40.5 46t63 18q44 0 118 -43l57 -34q20 -11 48 -21t41 -10q65 0 75 89z" />
    <glyph glyph-name="uni00A0" unicode="&#xa0;" horiz-adv-x="296" 
 />
    <glyph glyph-name="exclamdown" unicode="&#xa1;" horiz-adv-x="333" 
d="M237 424q0 -29 -20.5 -49.5t-49.5 -20.5t-49.5 20.5t-20.5 49.5t20.5 49.5t49.5 20.5t49.5 -20.5t20.5 -49.5zM194 202l21 -376q0 -2 0.5 -10t0.5 -10q0 -8 -13 -8h-75q-13 0 -13 8q0 2 0.5 8.5t0.5 10.5l22 377q0 13 14 13h28q6 0 8.5 -0.5t4 -3.5t1.5 -9z" />
    <glyph glyph-name="cent" unicode="&#xa2;" 
d="M323 67v-59q0 -8 -3 -10.5t-11 -2.5h-26q-8 0 -11 2.5t-3 10.5v55q-34 3 -62.5 16t-55 39.5t-42 74.5t-15.5 113q0 68 16 119.5t43 80t55.5 43.5t60.5 19v53q0 9 3 11.5t11 2.5h26q8 0 11 -3t3 -11v-53q32 0 75 -17.5t43 -30.5q0 -2 -3 -8l-22 -38q-4 -6 -7 -6
q-2 0 -44 21q-21 10 -42 12v-366q29 2 49 14q35 21 41 21q5 0 7 -6l17 -42q0 -1 1 -3.5t1 -3.5q0 -10 -45 -28t-71 -20zM269 133v366q-47 -12 -73 -51.5t-26 -129.5q0 -86 23 -130t76 -55z" />
    <glyph glyph-name="sterling" unicode="&#xa3;" 
d="M507 44l-15 -34q-4 -10 -15 -10h-412q-8 0 -10.5 2.5t-2.5 11.5v38q0 8 2.5 10.5t10.5 2.5h86q15 70 15 120q0 54 -17 122h-90q-9 0 -11.5 2.5t-2.5 11.5v38q0 8 2.5 10.5t11.5 2.5h76q-17 58 -17 102q0 84 58 133.5t152 49.5q46 0 96 -15.5t50 -29.5l-3 -9l-19 -38
q-4 -6 -8 -6q-3 0 -19.5 7.5t-44.5 15.5t-57 8q-58 0 -93.5 -31t-35.5 -82q0 -23 14 -105h135q9 0 11.5 -2.5t2.5 -10.5v-38q0 -9 -3 -11.5t-11 -2.5h-119q18 -75 18 -124q0 -40 -15 -118h270q13 0 13 -8q0 -5 -3 -13z" />
    <glyph glyph-name="currency" unicode="&#xa4;" 
d="M44 118l-30 30l67 67q-47 51 -47 136q0 79 48 138l-70 70l32 31l69 -68q61 46 137 46q74 0 136 -46l69 68l32 -31l-70 -70q48 -52 48 -138q0 -83 -47 -136l67 -67l-30 -30l-66 66q-63 -47 -139 -47q-80 0 -140 47zM250 527q-72 0 -123.5 -52t-51.5 -124t51.5 -122.5
t123.5 -50.5t123 50.5t51 122.5q0 73 -50.5 124.5t-123.5 51.5z" />
    <glyph glyph-name="yen" unicode="&#xa5;" horiz-adv-x="537" 
d="M394 53v-41q0 -12 -12 -12h-222q-12 0 -12 12v41q0 12 12 12h70v182h-182q-12 0 -12 11v16q0 7 0.5 10t4 5t10.5 2h179l-33 66h-149q-12 0 -12 11v16q0 7 0.5 10t4 5t10.5 2h125l-107 219h-37q-12 0 -12 12v42q0 11 12 11h186q11 0 11 -11v-42q0 -12 -11 -12h-62l93 -202
q5 -11 26 -53q8 21 28 63l84 192h-64q-11 0 -11 12v42q0 11 11 11h187q11 0 11 -11v-42q0 -12 -11 -12h-42l-104 -219h123q7 0 10.5 -2t4 -5t0.5 -10v-16q0 -11 -12 -11h-147l-31 -66h175q7 0 10.5 -2t4 -5t0.5 -10v-16q0 -11 -12 -11h-178v-182h70q12 0 12 -12z" />
    <glyph glyph-name="brokenbar" unicode="&#xa6;" horiz-adv-x="304" 
d="M188 661v-336h-72v336q0 14 13 14h46q13 0 13 -14zM188 175v-336q0 -9 -2 -11.5t-11 -2.5h-46q-9 0 -11 2.5t-2 11.5v336h72z" />
    <glyph glyph-name="section" unicode="&#xa7;" 
d="M388 641l-19 -38q-4 -8 -8 -8t-17.5 9.5t-37 18.5t-50.5 9q-31 0 -54.5 -16t-23.5 -46q0 -27 22 -45.5t71 -42t71 -37.5q40 -26 60 -54t20 -68q0 -31 -12.5 -57.5t-36.5 -47t-36 -28.5t-34 -21q22 -12 31.5 -18t29.5 -22.5t29 -38t9 -48.5q0 -61 -49 -102.5t-117 -41.5
q-47 0 -102.5 23t-55.5 38q0 2 4 12l18 35q4 8 9 8q3 0 22.5 -12.5t50 -24.5t59.5 -12q34 0 56.5 19.5t22.5 50.5q0 25 -16 46t-34.5 31.5t-52.5 27t-49 25.5q-45 27 -67.5 54t-22.5 74q0 27 9.5 51.5t21 39t31.5 30t29.5 20.5t26.5 14q-17 8 -28.5 14.5t-29 21t-27 35.5
t-9.5 47q0 56 45 94.5t115 38.5q43 0 86 -17.5t43 -30.5q0 -5 -3 -10zM250 202q17 9 28 16t29.5 21.5t28.5 33.5t10 41q0 57 -98 103q-3 1 -4 2q-55 -32 -74 -62q-16 -25 -16 -54q0 -15 5.5 -28.5t11 -21.5t19.5 -18t19.5 -13t22.5 -11t18 -9z" />
    <glyph glyph-name="dieresis" unicode="&#xa8;" horiz-adv-x="308" 
d="M104 629q0 -22 -15.5 -37.5t-37.5 -15.5t-37.5 15.5t-15.5 37.5t15.5 37.5t37.5 15.5t37.5 -15.5t15.5 -37.5zM195 629q0 22 15.5 37.5t37.5 15.5t37.5 -15.5t15.5 -37.5t-15.5 -37.5t-37.5 -15.5t-37.5 15.5t-15.5 37.5z" />
    <glyph glyph-name="copyright" unicode="&#xa9;" horiz-adv-x="556" 
d="M365 434l21 1q-2 -15 -3.5 -23t-8 -24t-16 -25.5t-28.5 -17t-45 -7.5q-56 0 -92.5 38t-36.5 96q0 60 38.5 102t84.5 42q23 0 44 -8t27 -8q4 0 6.5 2t6.5 8l4 5h15v-102l-15 -3q-1 1 -4.5 11t-5 13t-5.5 12t-7 13t-7.5 11t-9 10.5t-10.5 7.5t-12.5 5.5t-13.5 1.5
q-71 0 -71 -122q0 -52 19 -82t55 -30q56 0 70 73zM278 249q-95 0 -164.5 65.5t-69.5 159.5t69.5 159.5t164.5 65.5t164.5 -65.5t69.5 -159.5t-69.5 -159.5t-164.5 -65.5zM79 474q0 -79 58.5 -134.5t140.5 -55.5t140.5 55.5t58.5 134.5q0 80 -58.5 135t-140.5 55t-140.5 -55
t-58.5 -135z" />
    <glyph glyph-name="ordfeminine" unicode="&#xaa;" horiz-adv-x="444" 
d="M371 325h-73q-8 0 -14.5 13.5t-7.5 22.5q-48 -43 -100 -43q-41 0 -65.5 25t-24.5 68q0 117 182 121v18q0 27 -13.5 38.5t-48.5 11.5q-21 0 -40.5 -5t-31 -10.5t-14.5 -5.5q-4 0 -6 7l-8 29q-2 8 -2 10q0 10 38.5 21t77.5 11q62 0 86.5 -23.5t24.5 -71.5v-118q0 -40 8 -67
h32q8 0 8 -8v-36q0 -8 -8 -8zM268 403v80q-115 0 -115 -69q0 -17 9.5 -30.5t27.5 -13.5q38 0 78 33z" />
    <glyph glyph-name="guillemotleft" unicode="&#xab;" horiz-adv-x="481" 
d="M117 239l129 -190q5 -8 5 -9q0 -5 -10 -10l-27 -15q-4 -3 -9 -3q-6 0 -10 7l-168 211q-5 5 -5 9q0 5 5 10l168 211q5 7 10 7q2 0 6 -2q2 -1 3 -1l27 -15q9 -5 9 -10q0 -1 -4 -9zM302 239l129 -190q5 -8 5 -9q0 -5 -10 -10l-27 -15q-5 -3 -9 -3q-6 0 -10 7l-168 211
q-5 5 -5 9q0 5 5 10l168 211q5 7 10 7l9 -3l27 -15q9 -5 9 -10q0 -1 -4 -9z" />
    <glyph glyph-name="logicalnot" unicode="&#xac;" 
d="M477 344v-181q0 -14 -13 -14h-46q-13 0 -13 14v123h-370q-9 0 -11 2.5t-2 11.5v44q0 9 2 11.5t11 2.5h428q9 0 11.5 -2.5t2.5 -11.5z" />
    <glyph glyph-name="uni00AD" unicode="&#xad;" horiz-adv-x="352" 
d="M301 279v-51q0 -10 -14 -10h-222q-14 0 -14 13v46q0 16 13 16h223q14 0 14 -14z" />
    <glyph glyph-name="registered" unicode="&#xae;" horiz-adv-x="556" 
d="M162 350v19q23 2 30 8.5t7 31.5v143q0 23 -6 28t-31 8v20h122q53 0 81 -13.5t28 -51.5q0 -23 -14 -37.5t-25.5 -18.5t-33.5 -9q27 -16 38.5 -39.5t15.5 -38t14 -14.5q16 0 16 33h20q0 -24 -12 -46.5t-41 -22.5t-42.5 19t-15 42t-12.5 42t-36 19h-11v-60q0 -28 5.5 -33.5
t32.5 -9.5v-19h-130zM254 550v-57h21q57 0 57 45q0 50 -43 50q-16 0 -24 -5t-9.5 -11.5t-1.5 -21.5zM278 249q-95 0 -164.5 65.5t-69.5 159.5t69.5 159.5t164.5 65.5t164.5 -65.5t69.5 -159.5t-69.5 -159.5t-164.5 -65.5zM79 474q0 -79 58.5 -134.5t140.5 -55.5t140.5 55.5
t58.5 134.5t-58.5 134.5t-140.5 55.5t-140.5 -55.5t-58.5 -134.5z" />
    <glyph glyph-name="macron" unicode="&#xaf;" horiz-adv-x="308" 
d="M276 646v-35q0 -8 -2 -10.5t-11 -2.5h-218q-9 0 -11.5 2.5t-2.5 10.5v35q0 8 3 11t11 3h218q13 0 13 -14z" />
    <glyph glyph-name="degree" unicode="&#xb0;" 
d="M404 531q0 -64 -45.5 -109t-108.5 -45q-64 0 -109.5 45t-45.5 109t45.5 109t109.5 45q63 0 108.5 -45t45.5 -109zM249 440q38 0 65 27t27 64t-27 64t-65 27q-37 0 -64 -26.5t-27 -64.5q0 -37 27 -64t64 -27z" />
    <glyph glyph-name="plusminus" unicode="&#xb1;" 
d="M285 218v-144q0 -9 -2 -11.5t-11 -2.5h-46q-9 0 -11 2.5t-2 11.5v144h-178q-9 0 -11 2.5t-2 11.5v44q0 9 2 11.5t11 2.5h178v176q0 10 2.5 12t10.5 2h46q9 0 11 -2t2 -12v-176h178q9 0 11.5 -2.5t2.5 -11.5v-44q0 -9 -2.5 -11.5t-11.5 -2.5h-178zM477 8v-44
q0 -9 -2.5 -11.5t-11.5 -2.5h-428q-9 0 -11 2.5t-2 11.5v44q0 9 2 11.5t11 2.5h428q9 0 11.5 -2.5t2.5 -11.5z" />
    <glyph glyph-name="twosuperior" unicode="&#xb2;" horiz-adv-x="352" 
d="M298 299v-26q0 -18 -19 -18h-207q-18 0 -18 16v5q0 40 9 72t28 54t34 35t40 29.5t34 23.5q31 24 31 54q0 53 -52 53q-45 0 -61 -57q-4 -11 -12 -11q-4 0 -10 2l-27 7q-13 2 -13 14t11 33t26 34q36 32 89 32q52 0 84.5 -27.5t32.5 -76.5q0 -30 -14.5 -55t-29 -37.5
t-43 -30.5t-34.5 -23q-43 -33 -52 -84h154q19 0 19 -18z" />
    <glyph glyph-name="threesuperior" unicode="&#xb3;" horiz-adv-x="352" 
d="M73 565l-24 18q-4 4 -4 8q0 15 36.5 37.5t81.5 22.5q50 0 84.5 -27t34.5 -74q0 -24 -12 -43.5t-19.5 -25.5t-22.5 -15q68 -33 68 -100q0 -54 -40.5 -86.5t-106.5 -32.5q-34 0 -74 9.5t-40 20.5q0 4 3 10l13 26q4 8 9 8q2 0 14 -5t32.5 -10t44.5 -5q37 0 57 17.5t20 49.5
q0 65 -88 65h-22q-15 0 -15 11v27q0 9 3 12t12 3h22q29 0 54 14.5t25 48.5q0 22 -17 35t-42 13q-27 0 -52 -18t-27 -18q-4 0 -8 4z" />
    <glyph glyph-name="acute" unicode="&#xb4;" horiz-adv-x="308" 
d="M248 638l-164 -85q-4 -3 -10 -3q-4 0 -9 8l-9 14q-5 8 -5 10q0 1 8 9l145 112q8 5 10 5q5 0 10 -8l29 -43q4 -6 4 -10q0 -5 -9 -9z" />
    <glyph glyph-name="mu" unicode="&#xb5;" horiz-adv-x="556" 
d="M527 50v-38q0 -12 -12 -12h-84q-13 0 -21 7t-14 22t-7 16q-72 -59 -139 -59q-41 0 -70 25v-151h63q12 0 12 -11v-40q0 -11 -12 -11h-191q-11 0 -11 11v40q0 11 11 11h52v558h-56q-12 0 -12 12v38q0 12 12 12h120q12 0 12 -12v-334q0 -81 82 -81q22 0 60 18t54 33v314h-57
q-12 0 -12 12v38q0 12 12 12h121q12 0 12 -12v-343q0 -30 6 -63h57q12 0 12 -12z" />
    <glyph glyph-name="paragraph" unicode="&#xb6;" horiz-adv-x="611" 
d="M501 620v-793q0 -8 -2.5 -10.5t-11.5 -2.5h-41q-8 0 -11 2.5t-3 10.5v793h-64v-793q0 -8 -2.5 -10.5t-11.5 -2.5h-41q-9 0 -11.5 2.5t-2.5 10.5v347q-58 -7 -74 -7q-186 0 -186 263q0 130 66 202q7 8 16.5 15t17.5 11.5t20 9t20 7t22 4.5t20.5 3t21.5 1.5t19 1t19.5 0.5
h17.5h269q9 0 11.5 -2.5t2.5 -10.5v-39q0 -8 -3 -10.5t-11 -2.5h-67zM299 238v382q-43 0 -67.5 -3t-47.5 -13t-34 -31t-17.5 -56t-6.5 -88q0 -99 28 -148t99 -49q23 0 46 6z" />
    <glyph glyph-name="periodcentered" unicode="&#xb7;" 
d="M312 254q0 -26 -18 -44t-44 -18t-44 18t-18 44t18 44t44 18t44 -18t18 -44z" />
    <glyph glyph-name="cedilla" unicode="&#xb8;" horiz-adv-x="308" 
d="M156 1l-5 -55q16 -2 25.5 -4.5t23.5 -8.5t21 -19.5t7 -32.5q0 -38 -31.5 -58.5t-71.5 -20.5q-21 0 -40.5 5.5t-19.5 13.5q0 2 0.5 4.5t0.5 3.5l4 30q0 5 5 5q1 0 7.5 -2t18 -4t26.5 -2q40 0 40 23q0 16 -19.5 19t-38.5 5t-19 13q0 9 1 18l7 67h58z" />
    <glyph glyph-name="onesuperior" unicode="&#xb9;" horiz-adv-x="352" 
d="M294 294v-24q0 -9 -3 -12t-12 -3h-175q-9 0 -12 3t-3 12v24q0 9 3 12t12 3h61v265l-83 -42q-4 -3 -9 -3q-6 0 -11 9l-8 12q-3 4 -3 9q0 6 8 11l119 73h34q16 0 16 -15v-319h51q15 0 15 -15z" />
    <glyph glyph-name="ordmasculine" unicode="&#xba;" horiz-adv-x="407" 
d="M338 489q0 -75 -34 -123t-104 -48q-65 0 -98 46t-33 121t34 123.5t103 48.5q67 0 99.5 -46t32.5 -122zM204 370q67 0 67 120q0 115 -67 115q-68 0 -68 -113q0 -122 68 -122z" />
    <glyph glyph-name="guillemotright" unicode="&#xbb;" horiz-adv-x="481" 
d="M454 230l-168 -211q-5 -7 -10 -7l-9 3l-27 15q-9 5 -9 10q0 1 4 9l129 191l-129 190q-5 8 -5 9q0 5 10 10l27 15q5 3 9 3q6 0 10 -7l168 -211q5 -5 5 -9q0 -5 -5 -10zM269 230l-168 -211q-5 -7 -10 -7q-2 0 -6 2q-2 1 -3 1l-27 15q-9 5 -9 10q0 1 4 9l129 191l-129 190
q-5 8 -5 9q0 5 10 10l27 15q4 3 9 3q6 0 10 -7l168 -211q5 -5 5 -9q0 -5 -5 -10z" />
    <glyph glyph-name="onequarter" unicode="&#xbc;" horiz-adv-x="833" 
d="M707 76v-75q0 -9 -3 -12t-12 -3h-31q-10 0 -13.5 3t-3.5 12v75h-161q-9 0 -12 3t-3 12v35l172 250q7 9 10 9q8 0 12 -1l28 -5q14 -3 14 -10q0 -4 -5 -11l-160 -230h105l7 87q1 14 17 14h24q9 0 12 -3t3 -12v-86h47q9 0 12 -3t3 -12v-22q0 -9 -3 -12t-12 -3h-47zM545 640
l-200 -644q-3 -10 -18 -10h-38q-13 0 -13 7q0 3 2 9l199 645q3 10 15 10h42q13 0 13 -8q0 -5 -2 -9zM299 294v-24q0 -9 -3 -12t-12 -3h-175q-9 0 -12 3t-3 12v24q0 9 3 12t12 3h61v265l-83 -42q-5 -3 -9 -3q-6 0 -11 9l-8 12q-3 4 -3 9q0 6 8 11l119 73h34q16 0 16 -15v-319
h51q15 0 15 -15z" />
    <glyph glyph-name="onehalf" unicode="&#xbd;" horiz-adv-x="833" 
d="M549 640l-200 -644q-3 -10 -18 -10h-38q-13 0 -13 7q0 3 2 9l199 645q3 10 15 10h42q13 0 13 -8q0 -5 -2 -9zM303 294v-24q0 -9 -3 -12t-12 -3h-175q-9 0 -12 3t-3 12v24q0 9 3 12t12 3h61v265l-83 -42q-5 -3 -9 -3q-6 0 -11 9l-8 12q-3 4 -3 9q0 6 8 11l119 73h34
q16 0 16 -15v-319h51q15 0 15 -15zM761 44v-26q0 -18 -19 -18h-207q-18 0 -18 16v5q0 40 9 72t28 54t34 35t40 29.5t34 23.5q31 24 31 54q0 53 -52 53q-45 0 -61 -57q-4 -11 -12 -11q-4 0 -10 2l-27 7q-13 2 -13 14t11 33t26 34q36 32 89 32q52 0 84.5 -27.5t32.5 -76.5
q0 -30 -14.5 -55t-29 -37.5t-43 -30.5t-34.5 -23q-43 -33 -52 -84h154q19 0 19 -18z" />
    <glyph glyph-name="threequarters" unicode="&#xbe;" horiz-adv-x="833" 
d="M723 76v-75q0 -9 -3 -12t-12 -3h-31q-10 0 -13.5 3t-3.5 12v75h-161q-9 0 -12 3t-3 12v35l172 250q7 9 10 9q8 0 12 -1l28 -5q14 -3 14 -10q0 -4 -5 -11l-160 -230h105l7 87q1 14 17 14h24q9 0 12 -3t3 -12v-86h47q9 0 12 -3t3 -12v-22q0 -9 -3 -12t-12 -3h-47zM561 640
l-200 -644q-3 -10 -18 -10h-38q-13 0 -13 7q0 3 2 9l199 645q3 10 15 10h42q13 0 13 -8q0 -5 -2 -9zM90 565l-24 18q-4 4 -4 8q0 15 36.5 37.5t81.5 22.5q50 0 84.5 -27t34.5 -74q0 -24 -12 -43.5t-19.5 -25.5t-22.5 -15q68 -33 68 -100q0 -54 -40.5 -86.5t-106.5 -32.5
q-34 0 -74 9.5t-40 20.5q0 4 3 10l13 26q4 8 9 8q2 0 14 -5t32.5 -10t44.5 -5q37 0 57 17.5t20 49.5q0 65 -88 65h-22q-15 0 -15 11v27q0 9 3 12t12 3h22q29 0 54 14.5t25 48.5q0 22 -17 35t-42 13q-27 0 -52 -18t-27 -18q-4 0 -8 4z" />
    <glyph glyph-name="questiondown" unicode="&#xbf;" horiz-adv-x="426" 
d="M203 120v91q0 8 2.5 10.5t11.5 2.5h40q9 0 11.5 -2.5t2.5 -10.5v-111q0 -26 -9 -30q-2 -1 -20 -5.5t-34.5 -11.5t-35 -19t-29.5 -33t-11 -48q0 -96 101 -96q25 0 52 7.5t44.5 15t20.5 7.5q8 0 11 -10l14 -35q1 -2 1 -7q0 -15 -53.5 -30t-97.5 -15q-75 0 -125 38t-50 123
q0 36 12 65t28 45.5t40 30t38.5 18.5t34.5 10zM165 424q0 29 20.5 49.5t49.5 20.5t49.5 -20.5t20.5 -49.5t-20.5 -49.5t-49.5 -20.5t-49.5 20.5t-20.5 49.5z" />
    <glyph glyph-name="Agrave" unicode="&#xc0;" horiz-adv-x="611" 
d="M387 274l-60 221q-16 54 -23 95h-2q-7 -39 -21 -95l-61 -221h167zM597 53v-41q0 -12 -12 -12h-202q-12 0 -12 12v41q0 12 12 12h62l-39 139h-205l-38 -139h64q12 0 12 -12v-41q0 -12 -12 -12h-201q-12 0 -12 12v41q0 12 12 12h49l186 609q2 8 4.5 9.5t10.5 1.5h59
q11 0 15 -11l185 -609h50q12 0 12 -12zM256 908l145 -112q8 -8 8 -9q0 -3 -5 -10l-9 -14q-5 -8 -9 -8q-6 0 -10 3l-164 85q-9 4 -9 9q0 4 4 10l29 43q8 8 10 8z" />
    <glyph glyph-name="Aacute" unicode="&#xc1;" horiz-adv-x="611" 
d="M387 274l-60 221q-16 54 -23 95h-2q-7 -39 -21 -95l-61 -221h167zM597 53v-41q0 -12 -12 -12h-202q-12 0 -12 12v41q0 12 12 12h62l-39 139h-205l-38 -139h64q12 0 12 -12v-41q0 -12 -12 -12h-201q-12 0 -12 12v41q0 12 12 12h49l186 609q2 8 4.5 9.5t10.5 1.5h59
q11 0 15 -11l185 -609h50q12 0 12 -12zM400 843l-164 -85q-4 -3 -10 -3q-4 0 -9 8l-9 14q-5 7 -5 10q0 1 8 9l145 112q8 5 10 5q5 0 10 -8l29 -43q4 -6 4 -10q0 -5 -9 -9z" />
    <glyph glyph-name="Acircumflex" unicode="&#xc2;" horiz-adv-x="611" 
d="M387 274l-60 221q-16 54 -23 95h-2q-7 -39 -21 -95l-61 -221h167zM597 53v-41q0 -12 -12 -12h-202q-12 0 -12 12v41q0 12 12 12h62l-39 139h-205l-38 -139h64q12 0 12 -12v-41q0 -12 -12 -12h-201q-12 0 -12 12v41q0 12 12 12h49l186 609q2 8 4.5 9.5t10.5 1.5h59
q11 0 15 -11l185 -609h50q12 0 12 -12zM429 790l-14 -18q-3 -5 -7 -5q-6 0 -10 3l-92 60l-91 -60q-8 -4 -9 -4q-4 0 -10 8l-12 16q-5 8 -5 9q0 2 8 10l110 88q7 5 9 5t10 -5l110 -88q7 -7 7 -9q0 -4 -4 -10z" />
    <glyph glyph-name="Atilde" unicode="&#xc3;" horiz-adv-x="611" 
d="M387 274l-60 221q-16 54 -23 95h-2q-7 -39 -21 -95l-61 -221h167zM597 53v-41q0 -12 -12 -12h-202q-12 0 -12 12v41q0 12 12 12h62l-39 139h-205l-38 -139h64q12 0 12 -12v-41q0 -12 -12 -12h-201q-12 0 -12 12v41q0 12 12 12h49l186 609q2 8 4.5 9.5t10.5 1.5h59
q11 0 15 -11l185 -609h50q12 0 12 -12zM420 882l27 -12q7 -5 7 -8q0 -6 -9 -23.5t-31.5 -36.5t-51.5 -19q-26 0 -60 21q-34 20 -52 20q-14 0 -24.5 -10t-17 -19.5t-10.5 -9.5q-2 0 -6 2l-27 11q-8 4 -8 9t8.5 22.5t31 37t51.5 19.5q25 0 61 -20q34 -21 50 -21q17 0 28 9.5
t16.5 19.5t9.5 10q1 0 7 -2z" />
    <glyph glyph-name="Adieresis" unicode="&#xc4;" horiz-adv-x="611" 
d="M387 274l-60 221q-16 54 -23 95h-2q-7 -39 -21 -95l-61 -221h167zM597 53v-41q0 -12 -12 -12h-202q-12 0 -12 12v41q0 12 12 12h62l-39 139h-205l-38 -139h64q12 0 12 -12v-41q0 -12 -12 -12h-201q-12 0 -12 12v41q0 12 12 12h49l186 609q2 8 4.5 9.5t10.5 1.5h59
q11 0 15 -11l185 -609h50q12 0 12 -12zM256 834q0 -22 -15.5 -37.5t-37.5 -15.5t-37.5 15.5t-15.5 37.5t15.5 37.5t37.5 15.5t37.5 -15.5t15.5 -37.5zM347 834q0 22 15.5 37.5t37.5 15.5t37.5 -15.5t15.5 -37.5t-15.5 -37.5t-37.5 -15.5t-37.5 15.5t-15.5 37.5z" />
    <glyph glyph-name="Aring" unicode="&#xc5;" horiz-adv-x="611" 
d="M387 274l-60 221q-16 54 -23 95h-2q-7 -39 -21 -95l-61 -221h167zM597 53v-41q0 -12 -12 -12h-202q-12 0 -12 12v41q0 12 12 12h62l-39 139h-205l-38 -139h64q12 0 12 -12v-41q0 -12 -12 -12h-201q-12 0 -12 12v41q0 12 12 12h49l186 609q2 8 4.5 9.5t10.5 1.5h59
q11 0 15 -11l185 -609h50q12 0 12 -12zM405 834q0 -37 -26 -63t-63 -26t-62.5 26t-25.5 63q0 36 26 62.5t62 26.5q37 0 63 -26t26 -63zM316 791q17 0 29 13t12 30t-12 30t-29 13q-16 0 -28 -13t-12 -30q0 -18 11.5 -30.5t28.5 -12.5z" />
    <glyph glyph-name="AE" unicode="&#xc6;" horiz-adv-x="796" 
d="M411 274v365h-2q-53 -124 -56 -130l-106 -235h164zM377 685h349q8 0 10.5 -3t2.5 -11v-136q0 -12 -11 -12h-46q-11 0 -11 12v80h-177v-222h196q8 0 10.5 -2.5t2.5 -10.5v-44q0 -8 -2.5 -10.5t-10.5 -2.5h-196v-253h184v90q0 11 11 11h45q12 0 12 -11v-146q0 -9 -3 -11.5
t-11 -2.5h-385q-12 0 -12 12v41q0 12 12 12h64v142h-193l-63 -142h53q11 0 11 -12v-41q0 -12 -11 -12h-182q-12 0 -12 12v41q0 12 12 12h41l285 598l5.5 11t7 7t12.5 4z" />
    <glyph glyph-name="Ccedilla" unicode="&#xc7;" horiz-adv-x="481" 
d="M295 -14l-4 -40q47 -8 62 -25q15 -16 15 -45q0 -38 -31.5 -58.5t-71.5 -20.5q-21 0 -40.5 5.5t-19.5 13.5q0 2 0.5 4.5t0.5 3.5l4 30q2 5 5 5q1 0 7.5 -2t18 -4t26.5 -2q40 0 40 23q0 16 -19.5 19t-39 5t-19.5 13q0 9 1 18l7 59q-54 8 -93 46t-57.5 94.5t-26.5 110.5
t-8 110q0 350 222 350q83 0 152 -50q10 -8 10 -19v-111q0 -12 -11 -12h-46q-11 0 -11 12v85q-47 28 -92 28q-76 0 -105 -68t-29 -205q0 -306 142 -306q40 0 89 28v86q0 12 11 12h46q11 0 11 -12v-104q0 -19 -9 -26q-65 -51 -137 -51z" />
    <glyph glyph-name="Egrave" unicode="&#xc8;" horiz-adv-x="481" 
d="M449 160v-146q0 -9 -3 -11.5t-11 -2.5h-383q-12 0 -12 12v41q0 12 12 12h63v555h-63q-12 0 -12 12v41q0 12 12 12h377q8 0 10.5 -3t2.5 -11v-136q0 -12 -11 -12h-46q-11 0 -11 12v80h-177v-222h196q8 0 10.5 -2.5t2.5 -10.5v-44q0 -8 -2.5 -10.5t-10.5 -2.5h-196v-253
h184v90q0 11 11 11h45q12 0 12 -11zM191 908l145 -112q8 -8 8 -9q0 -3 -5 -10l-9 -14q-5 -8 -9 -8q-5 0 -10 3l-164 85q-9 4 -9 9q0 4 4 10l29 43q8 8 10 8z" />
    <glyph glyph-name="Eacute" unicode="&#xc9;" horiz-adv-x="481" 
d="M449 160v-146q0 -9 -3 -11.5t-11 -2.5h-383q-12 0 -12 12v41q0 12 12 12h63v555h-63q-12 0 -12 12v41q0 12 12 12h377q8 0 10.5 -3t2.5 -11v-136q0 -12 -11 -12h-46q-11 0 -11 12v80h-177v-222h196q8 0 10.5 -2.5t2.5 -10.5v-44q0 -8 -2.5 -10.5t-10.5 -2.5h-196v-253
h184v90q0 11 11 11h45q12 0 12 -11zM355 843l-164 -85q-5 -3 -10 -3q-4 0 -9 8l-9 14q-5 7 -5 10q0 1 8 9l145 112q8 5 10 5q5 0 10 -8l29 -43q4 -6 4 -10q0 -5 -9 -9z" />
    <glyph glyph-name="Ecircumflex" unicode="&#xca;" horiz-adv-x="481" 
d="M449 160v-146q0 -9 -3 -11.5t-11 -2.5h-383q-12 0 -12 12v41q0 12 12 12h63v555h-63q-12 0 -12 12v41q0 12 12 12h377q8 0 10.5 -3t2.5 -11v-136q0 -12 -11 -12h-46q-11 0 -11 12v80h-177v-222h196q8 0 10.5 -2.5t2.5 -10.5v-44q0 -8 -2.5 -10.5t-10.5 -2.5h-196v-253
h184v90q0 11 11 11h45q12 0 12 -11zM364 790l-14 -18q-3 -5 -7 -5q-5 0 -10 3l-92 60l-91 -60q-8 -4 -9 -4q-4 0 -10 8l-12 16q-5 8 -5 9q0 2 8 10l110 88q8 5 9 5q3 0 10 -5l110 -88q7 -7 7 -9q0 -4 -4 -10z" />
    <glyph glyph-name="Edieresis" unicode="&#xcb;" horiz-adv-x="481" 
d="M449 160v-146q0 -9 -3 -11.5t-11 -2.5h-383q-12 0 -12 12v41q0 12 12 12h63v555h-63q-12 0 -12 12v41q0 12 12 12h377q8 0 10.5 -3t2.5 -11v-136q0 -12 -11 -12h-46q-11 0 -11 12v80h-177v-222h196q8 0 10.5 -2.5t2.5 -10.5v-44q0 -8 -2.5 -10.5t-10.5 -2.5h-196v-253
h184v90q0 11 11 11h45q12 0 12 -11zM191 834q0 -22 -15.5 -37.5t-37.5 -15.5t-37.5 15.5t-15.5 37.5t15.5 37.5t37.5 15.5t37.5 -15.5t15.5 -37.5zM282 834q0 22 15.5 37.5t37.5 15.5t37.5 -15.5t15.5 -37.5t-15.5 -37.5t-37.5 -15.5t-37.5 15.5t-15.5 37.5z" />
    <glyph glyph-name="Igrave" unicode="&#xcc;" horiz-adv-x="333" 
d="M311 53v-41q0 -12 -12 -12h-264q-12 0 -12 12v41q0 12 12 12h91v555h-91q-12 0 -12 12v41q0 12 12 12h264q12 0 12 -12v-41q0 -12 -12 -12h-91v-555h91q12 0 12 -12zM117 908l145 -112q8 -8 8 -9q0 -3 -5 -10l-9 -14q-5 -8 -9 -8q-5 0 -10 3l-164 85q-9 4 -9 9q0 4 4 10
l29 43q8 8 10 8z" />
    <glyph glyph-name="Iacute" unicode="&#xcd;" horiz-adv-x="333" 
d="M311 53v-41q0 -12 -12 -12h-264q-12 0 -12 12v41q0 12 12 12h91v555h-91q-12 0 -12 12v41q0 12 12 12h264q12 0 12 -12v-41q0 -12 -12 -12h-91v-555h91q12 0 12 -12zM261 843l-164 -85q-4 -3 -10 -3q-4 0 -9 8l-9 14q-5 7 -5 10q0 1 8 9l145 112q8 5 10 5q5 0 10 -8
l29 -43q4 -6 4 -10q0 -5 -9 -9z" />
    <glyph glyph-name="Icircumflex" unicode="&#xce;" horiz-adv-x="333" 
d="M311 53v-41q0 -12 -12 -12h-264q-12 0 -12 12v41q0 12 12 12h91v555h-91q-12 0 -12 12v41q0 12 12 12h264q12 0 12 -12v-41q0 -12 -12 -12h-91v-555h91q12 0 12 -12zM290 790l-14 -18q-3 -5 -7 -5q-5 0 -10 3l-92 60l-91 -60q-8 -4 -9 -4q-4 0 -10 8l-12 16q-5 8 -5 9
q0 2 8 10l110 88q7 5 9 5q3 0 10 -5l110 -88q7 -7 7 -9q0 -4 -4 -10z" />
    <glyph glyph-name="Idieresis" unicode="&#xcf;" horiz-adv-x="333" 
d="M311 53v-41q0 -12 -12 -12h-264q-12 0 -12 12v41q0 12 12 12h91v555h-91q-12 0 -12 12v41q0 12 12 12h264q12 0 12 -12v-41q0 -12 -12 -12h-91v-555h91q12 0 12 -12zM117 834q0 -22 -15.5 -37.5t-37.5 -15.5t-37.5 15.5t-15.5 37.5t15.5 37.5t37.5 15.5t37.5 -15.5
t15.5 -37.5zM208 834q0 22 15.5 37.5t37.5 15.5t37.5 -15.5t15.5 -37.5t-15.5 -37.5t-37.5 -15.5t-37.5 15.5t-15.5 37.5z" />
    <glyph glyph-name="Eth" unicode="&#xd0;" horiz-adv-x="574" 
d="M52 685h201q48 0 82 -5.5t72 -25.5t61 -55.5t38.5 -98.5t15.5 -151q0 -182 -64.5 -265.5t-215.5 -83.5h-190q-12 0 -12 12v41q0 12 12 12h63v259h-62q-8 0 -10.5 3t-2.5 11v38q0 8 2 10.5t11 2.5h62v231h-63q-12 0 -12 12v41q0 12 12 12zM197 70h62q100 0 136.5 70.5
t36.5 212.5q0 107 -22 165.5t-58.5 77.5t-99.5 19h-55v-226h120q9 0 11.5 -2t2.5 -11v-38q0 -9 -2.5 -11.5t-11.5 -2.5h-120v-254z" />
    <glyph glyph-name="Ntilde" unicode="&#xd1;" horiz-adv-x="574" 
d="M493 620v-598q0 -2 0.5 -6.5t0.5 -6.5t-1 -4.5t-4 -3.5t-8 -1h-55q-10 0 -16 10l-230 494q-19 41 -27 87l-2 -2q10 -47 10 -89v-435h65q12 0 12 -12v-41q0 -12 -12 -12h-201q-12 0 -12 12v41q0 12 12 12h63v555h-63q-12 0 -12 12v41q0 12 12 12h140q11 0 15 -9l221 -466
q5 -11 9 -22.5t8 -28t7 -26.5l2 2l-7 49v436h-65q-12 0 -12 12v41q0 12 12 12h202q12 0 12 -12v-41q0 -12 -12 -12h-64zM401 882l27 -12q7 -5 7 -8q0 -6 -9 -23.5t-31.5 -36.5t-51.5 -19q-26 0 -60 21q-34 20 -52 20q-14 0 -24.5 -10t-17 -19.5t-10.5 -9.5q-2 0 -6 2l-27 11
q-8 4 -8 9t8.5 22.5t31 37t51.5 19.5q25 0 61 -20q34 -21 50 -21q17 0 28 9.5t16.5 19.5t9.5 10q1 0 7 -2z" />
    <glyph glyph-name="Ograve" unicode="&#xd2;" horiz-adv-x="556" 
d="M504 343q0 -167 -55 -262t-171 -95t-171 94.5t-55 262.5t55 262t171 94q115 0 170.5 -94.5t55.5 -261.5zM278 53q79 0 107.5 72.5t28.5 217.5q0 70 -5.5 119.5t-20 89.5t-42 60t-68.5 20t-68 -20t-41.5 -60t-20.5 -89.5t-6 -119.5q0 -145 28.5 -217.5t107.5 -72.5z
M228 908l145 -112q8 -8 8 -9q0 -3 -5 -10l-9 -14q-5 -8 -9 -8q-6 0 -10 3l-164 85q-9 4 -9 9q0 4 4 10l29 43q8 8 10 8z" />
    <glyph glyph-name="Oacute" unicode="&#xd3;" horiz-adv-x="556" 
d="M504 343q0 -167 -55 -262t-171 -95t-171 94.5t-55 262.5t55 262t171 94q115 0 170.5 -94.5t55.5 -261.5zM278 53q79 0 107.5 72.5t28.5 217.5q0 70 -5.5 119.5t-20 89.5t-42 60t-68.5 20t-68 -20t-41.5 -60t-20.5 -89.5t-6 -119.5q0 -145 28.5 -217.5t107.5 -72.5z
M372 843l-164 -85q-4 -3 -10 -3q-4 0 -9 8l-9 14q-5 7 -5 10q0 1 8 9l145 112q8 5 10 5q5 0 10 -8l29 -43q4 -6 4 -10q0 -5 -9 -9z" />
    <glyph glyph-name="Ocircumflex" unicode="&#xd4;" horiz-adv-x="556" 
d="M504 343q0 -167 -55 -262t-171 -95t-171 94.5t-55 262.5t55 262t171 94q115 0 170.5 -94.5t55.5 -261.5zM278 53q79 0 107.5 72.5t28.5 217.5q0 70 -5.5 119.5t-20 89.5t-42 60t-68.5 20t-68 -20t-41.5 -60t-20.5 -89.5t-6 -119.5q0 -145 28.5 -217.5t107.5 -72.5z
M401 790l-14 -18q-3 -5 -7 -5q-6 0 -10 3l-92 60l-91 -60q-8 -4 -9 -4q-4 0 -10 8l-12 16q-5 8 -5 9q0 2 8 10l110 88q8 5 9 5q2 0 10 -5l110 -88q7 -7 7 -9q0 -4 -4 -10z" />
    <glyph glyph-name="Otilde" unicode="&#xd5;" horiz-adv-x="556" 
d="M504 343q0 -167 -55 -262t-171 -95t-171 94.5t-55 262.5t55 262t171 94q115 0 170.5 -94.5t55.5 -261.5zM278 53q79 0 107.5 72.5t28.5 217.5q0 70 -5.5 119.5t-20 89.5t-42 60t-68.5 20t-68 -20t-41.5 -60t-20.5 -89.5t-6 -119.5q0 -145 28.5 -217.5t107.5 -72.5z
M392 882l27 -12q7 -5 7 -8q0 -6 -9 -23.5t-31.5 -36.5t-51.5 -19q-26 0 -60 21q-34 20 -52 20q-14 0 -24.5 -10t-17 -19.5t-10.5 -9.5q-2 0 -6 2l-27 11q-8 4 -8 9t8.5 22.5t31 37t51.5 19.5q25 0 61 -20q34 -21 50 -21q17 0 28 9.5t16.5 19.5t9.5 10q1 0 7 -2z" />
    <glyph glyph-name="Odieresis" unicode="&#xd6;" horiz-adv-x="556" 
d="M504 343q0 -167 -55 -262t-171 -95t-171 94.5t-55 262.5t55 262t171 94q115 0 170.5 -94.5t55.5 -261.5zM278 53q79 0 107.5 72.5t28.5 217.5q0 70 -5.5 119.5t-20 89.5t-42 60t-68.5 20t-68 -20t-41.5 -60t-20.5 -89.5t-6 -119.5q0 -145 28.5 -217.5t107.5 -72.5z
M228 834q0 -22 -15.5 -37.5t-37.5 -15.5t-37.5 15.5t-15.5 37.5t15.5 37.5t37.5 15.5t37.5 -15.5t15.5 -37.5zM319 834q0 22 15.5 37.5t37.5 15.5t37.5 -15.5t15.5 -37.5t-15.5 -37.5t-37.5 -15.5t-37.5 15.5t-15.5 37.5z" />
    <glyph glyph-name="multiply" unicode="&#xd7;" 
d="M425 109l-32 -32q-7 -7 -10 -7q-5 0 -10 7l-124 127l-125 -127q-5 -7 -10 -7q-3 0 -10 7l-32 32q-6 6 -6 9q0 4 6 10l127 126l-127 125q-6 5 -6 10t6 10l32 31q7 7 10 7t10 -7l125 -126l124 126q7 7 10 7t10 -7l32 -31q6 -5 6 -10t-6 -10l-120 -125l120 -126q6 -6 6 -10
q0 -3 -6 -9z" />
    <glyph glyph-name="Oslash" unicode="&#xd8;" horiz-adv-x="556" 
d="M489 701l-45 -87q59 -98 59 -269q0 -169 -56 -264t-174 -95q-75 0 -129 46l-33 -64q-5 -9 -9 -9q-6 0 -10 3l-29 14q-9 4 -9 9q0 1 3 10l45 89q-50 96 -50 256q0 169 56.5 264t174.5 95q13 0 25 -1t21 -2.5t18 -4.5t14 -5t12.5 -6t10 -6t9 -6.5t7.5 -5.5l35 66q5 9 9 9
q1 0 10 -3l29 -14q10 -5 10 -9q0 -2 -2 -5.5t-2 -4.5zM405 539l-227 -441q35 -45 98 -45q84 0 114.5 73.5t30.5 217.5q0 142 -16 195zM148 174l220 425q-33 33 -88 33q-84 0 -115 -74t-31 -219q0 -119 14 -165z" />
    <glyph glyph-name="Ugrave" unicode="&#xd9;" horiz-adv-x="611" 
d="M522 620v-436q0 -93 -54.5 -145.5t-165.5 -52.5q-207 0 -207 198v436h-64q-12 0 -12 12v41q0 12 12 12h210q12 0 12 -12v-41q0 -12 -12 -12h-64v-434q0 -68 27.5 -100.5t98.5 -32.5q137 0 137 133v434h-64q-12 0 -12 12v41q0 12 12 12h210q12 0 12 -12v-41q0 -12 -12 -12
h-64zM256 908l145 -112q8 -8 8 -9q0 -3 -5 -10l-9 -14q-5 -8 -9 -8q-6 0 -10 3l-164 85q-9 4 -9 9q0 4 4 10l29 43q8 8 10 8z" />
    <glyph glyph-name="Uacute" unicode="&#xda;" horiz-adv-x="611" 
d="M522 620v-436q0 -93 -54.5 -145.5t-165.5 -52.5q-207 0 -207 198v436h-64q-12 0 -12 12v41q0 12 12 12h210q12 0 12 -12v-41q0 -12 -12 -12h-64v-434q0 -68 27.5 -100.5t98.5 -32.5q137 0 137 133v434h-64q-12 0 -12 12v41q0 12 12 12h210q12 0 12 -12v-41q0 -12 -12 -12
h-64zM420 843l-164 -85q-4 -3 -10 -3q-4 0 -9 8l-9 14q-5 7 -5 10q0 1 8 9l145 112q8 5 10 5q5 0 10 -8l29 -43q4 -6 4 -10q0 -5 -9 -9z" />
    <glyph glyph-name="Ucircumflex" unicode="&#xdb;" horiz-adv-x="611" 
d="M522 620v-436q0 -93 -54.5 -145.5t-165.5 -52.5q-207 0 -207 198v436h-64q-12 0 -12 12v41q0 12 12 12h210q12 0 12 -12v-41q0 -12 -12 -12h-64v-434q0 -68 27.5 -100.5t98.5 -32.5q137 0 137 133v434h-64q-12 0 -12 12v41q0 12 12 12h210q12 0 12 -12v-41q0 -12 -12 -12
h-64zM429 790l-14 -18q-3 -5 -7 -5q-6 0 -10 3l-92 60l-91 -60q-8 -4 -9 -4q-4 0 -10 8l-12 16q-5 8 -5 9q0 2 8 10l110 88q7 5 9 5t10 -5l110 -88q7 -7 7 -9q0 -4 -4 -10z" />
    <glyph glyph-name="Udieresis" unicode="&#xdc;" horiz-adv-x="611" 
d="M522 620v-436q0 -93 -54.5 -145.5t-165.5 -52.5q-207 0 -207 198v436h-64q-12 0 -12 12v41q0 12 12 12h210q12 0 12 -12v-41q0 -12 -12 -12h-64v-434q0 -68 27.5 -100.5t98.5 -32.5q137 0 137 133v434h-64q-12 0 -12 12v41q0 12 12 12h210q12 0 12 -12v-41q0 -12 -12 -12
h-64zM256 834q0 -22 -15.5 -37.5t-37.5 -15.5t-37.5 15.5t-15.5 37.5t15.5 37.5t37.5 15.5t37.5 -15.5t15.5 -37.5zM347 834q0 22 15.5 37.5t37.5 15.5t37.5 -15.5t15.5 -37.5t-15.5 -37.5t-37.5 -15.5t-37.5 15.5t-15.5 37.5z" />
    <glyph glyph-name="Yacute" unicode="&#xdd;" horiz-adv-x="537" 
d="M394 53v-41q0 -12 -12 -12h-222q-12 0 -12 12v41q0 12 12 12h70v224l-176 331h-37q-12 0 -12 12v42q0 11 12 11h193q11 0 11 -11v-42q0 -12 -11 -12h-60l99 -202q11 -20 26 -52q7 19 28 62l90 192h-62q-11 0 -11 12v42q0 11 11 11h194q11 0 11 -11v-42q0 -12 -11 -12h-43
l-170 -329v-226h70q12 0 12 -12zM373 843l-164 -85q-4 -3 -10 -3q-4 0 -9 8l-9 14q-5 7 -5 10q0 1 8 9l145 112q8 5 10 5q5 0 10 -8l29 -43q4 -6 4 -10q0 -5 -9 -9z" />
    <glyph glyph-name="Thorn" unicode="&#xde;" 
d="M282 53v-41q0 -12 -12 -12h-219q-12 0 -12 12v41q0 12 12 12h64v555h-64q-12 0 -12 12v42q0 11 12 11h209q12 0 12 -11v-42q0 -12 -12 -12h-63v-73h84q29 0 51 -2t53 -12t50.5 -28t34 -53t14.5 -84q0 -60 -18.5 -103t-50.5 -65.5t-68.5 -32.5t-78.5 -10h-71v-92h73
q12 0 12 -12zM197 227h64q66 0 103.5 28.5t37.5 110.5q0 31 -8.5 53t-20 33t-31 17t-33.5 7t-36 1h-76v-250z" />
    <glyph glyph-name="germandbls" unicode="&#xdf;" horiz-adv-x="574" 
d="M95 62v480q0 87 43.5 134.5t146.5 47.5q75 0 120.5 -33.5t45.5 -95.5q0 -38 -17 -69t-38 -47.5t-38 -36.5t-17 -39q0 -20 22.5 -41t59.5 -46.5t53 -40.5q34 -32 48.5 -59t14.5 -67q0 -79 -42.5 -121t-119.5 -42q-38 0 -78.5 9.5t-40.5 19.5q0 6 4 16l10 36q1 7 7 7
q3 0 18 -6.5t39 -13t47 -6.5q83 0 83 89q0 32 -20.5 58.5t-50 46t-59.5 39t-50.5 48t-20.5 62.5q0 29 11.5 51.5t27.5 36.5t32 27.5t27.5 32.5t11.5 43q0 38 -26 59t-70 21q-59 0 -83.5 -28.5t-24.5 -93.5v-528q0 -8 -2.5 -10t-10.5 -2h-120q-12 0 -12 12v38q0 12 12 12h57z
" />
    <glyph glyph-name="agrave" unicode="&#xe0;" horiz-adv-x="463" 
d="M84 400l-13 35q-3 7 -3 13q0 13 54.5 29.5t101.5 16.5q154 0 154 -140v-192q0 -63 12 -100h47q12 0 12 -12v-38q0 -12 -12 -12h-85q-5 0 -9.5 2t-8 6t-6 7.5t-5 10t-4 9.5t-3.5 10t-2 8q-1 -1 -6.5 -6t-9.5 -9t-13 -11t-16.5 -12t-19.5 -10.5t-23.5 -9.5t-26 -6.5
t-29.5 -2.5q-60 0 -95 37.5t-35 103.5q0 35 12 63t28.5 45.5t44 30.5t47.5 19t51.5 10t43.5 4.5t35 1.5v36q0 46 -19 68t-70 22q-30 0 -58 -8t-45 -16t-19 -8q-5 0 -7 5zM302 110v129q-20 0 -30 -1t-37 -3.5t-43.5 -9.5t-36 -18t-29.5 -30t-10 -44q0 -34 18.5 -59.5
t53.5 -25.5q12 0 25.5 4t23 8.5t22 13.5t18 13.5t15.5 13.5zM182 703l145 -112q8 -8 8 -9q0 -2 -5 -10l-9 -14q-5 -8 -9 -8q-6 0 -10 3l-164 85q-9 4 -9 9q0 4 4 10l29 43q8 8 10 8z" />
    <glyph glyph-name="aacute" unicode="&#xe1;" horiz-adv-x="463" 
d="M84 400l-13 35q-3 7 -3 13q0 13 54.5 29.5t101.5 16.5q154 0 154 -140v-192q0 -63 12 -100h47q12 0 12 -12v-38q0 -12 -12 -12h-85q-5 0 -9.5 2t-8 6t-6 7.5t-5 10t-4 9.5t-3.5 10t-2 8q-1 -1 -6.5 -6t-9.5 -9t-13 -11t-16.5 -12t-19.5 -10.5t-23.5 -9.5t-26 -6.5
t-29.5 -2.5q-60 0 -95 37.5t-35 103.5q0 35 12 63t28.5 45.5t44 30.5t47.5 19t51.5 10t43.5 4.5t35 1.5v36q0 46 -19 68t-70 22q-30 0 -58 -8t-45 -16t-19 -8q-5 0 -7 5zM302 110v129q-20 0 -30 -1t-37 -3.5t-43.5 -9.5t-36 -18t-29.5 -30t-10 -44q0 -34 18.5 -59.5
t53.5 -25.5q12 0 25.5 4t23 8.5t22 13.5t18 13.5t15.5 13.5zM326 638l-164 -85q-4 -3 -10 -3q-4 0 -9 8l-9 14q-5 8 -5 10q0 1 8 9l145 112q8 5 10 5q5 0 10 -8l29 -43q4 -6 4 -10q0 -5 -9 -9z" />
    <glyph glyph-name="acircumflex" unicode="&#xe2;" horiz-adv-x="463" 
d="M84 400l-13 35q-3 7 -3 13q0 13 54.5 29.5t101.5 16.5q154 0 154 -140v-192q0 -63 12 -100h47q12 0 12 -12v-38q0 -12 -12 -12h-85q-5 0 -9.5 2t-8 6t-6 7.5t-5 10t-4 9.5t-3.5 10t-2 8q-1 -1 -6.5 -6t-9.5 -9t-13 -11t-16.5 -12t-19.5 -10.5t-23.5 -9.5t-26 -6.5
t-29.5 -2.5q-60 0 -95 37.5t-35 103.5q0 35 12 63t28.5 45.5t44 30.5t47.5 19t51.5 10t43.5 4.5t35 1.5v36q0 46 -19 68t-70 22q-30 0 -58 -8t-45 -16t-19 -8q-5 0 -7 5zM302 110v129q-20 0 -30 -1t-37 -3.5t-43.5 -9.5t-36 -18t-29.5 -30t-10 -44q0 -34 18.5 -59.5
t53.5 -25.5q12 0 25.5 4t23 8.5t22 13.5t18 13.5t15.5 13.5zM355 585l-14 -18q-3 -5 -7 -5q-6 0 -10 3l-92 60l-91 -60q-8 -4 -9 -4q-4 0 -10 8l-12 16q-5 7 -5 9t8 10l110 88q8 5 9 5q3 0 10 -5l110 -88q7 -7 7 -9q0 -4 -4 -10z" />
    <glyph glyph-name="atilde" unicode="&#xe3;" horiz-adv-x="463" 
d="M84 400l-13 35q-3 7 -3 13q0 13 54.5 29.5t101.5 16.5q154 0 154 -140v-192q0 -63 12 -100h47q12 0 12 -12v-38q0 -12 -12 -12h-85q-5 0 -9.5 2t-8 6t-6 7.5t-5 10t-4 9.5t-3.5 10t-2 8q-1 -1 -6.5 -6t-9.5 -9t-13 -11t-16.5 -12t-19.5 -10.5t-23.5 -9.5t-26 -6.5
t-29.5 -2.5q-60 0 -95 37.5t-35 103.5q0 35 12 63t28.5 45.5t44 30.5t47.5 19t51.5 10t43.5 4.5t35 1.5v36q0 46 -19 68t-70 22q-30 0 -58 -8t-45 -16t-19 -8q-5 0 -7 5zM302 110v129q-20 0 -30 -1t-37 -3.5t-43.5 -9.5t-36 -18t-29.5 -30t-10 -44q0 -34 18.5 -59.5
t53.5 -25.5q12 0 25.5 4t23 8.5t22 13.5t18 13.5t15.5 13.5zM346 677l27 -12q7 -5 7 -8q0 -6 -9 -23.5t-31.5 -36.5t-51.5 -19q-26 0 -60 21q-34 20 -52 20q-14 0 -24.5 -9.5t-17 -19.5t-10.5 -10q-2 0 -6 2l-27 11q-8 4 -8 9t8.5 22.5t31 37t51.5 19.5q25 0 61 -20
q34 -21 50 -21q17 0 28 10t16.5 19.5t9.5 9.5q1 0 7 -2z" />
    <glyph glyph-name="adieresis" unicode="&#xe4;" horiz-adv-x="463" 
d="M84 400l-13 35q-3 7 -3 13q0 13 54.5 29.5t101.5 16.5q154 0 154 -140v-192q0 -63 12 -100h47q12 0 12 -12v-38q0 -12 -12 -12h-85q-5 0 -9.5 2t-8 6t-6 7.5t-5 10t-4 9.5t-3.5 10t-2 8q-1 -1 -6.5 -6t-9.5 -9t-13 -11t-16.5 -12t-19.5 -10.5t-23.5 -9.5t-26 -6.5
t-29.5 -2.5q-60 0 -95 37.5t-35 103.5q0 35 12 63t28.5 45.5t44 30.5t47.5 19t51.5 10t43.5 4.5t35 1.5v36q0 46 -19 68t-70 22q-30 0 -58 -8t-45 -16t-19 -8q-5 0 -7 5zM302 110v129q-20 0 -30 -1t-37 -3.5t-43.5 -9.5t-36 -18t-29.5 -30t-10 -44q0 -34 18.5 -59.5
t53.5 -25.5q12 0 25.5 4t23 8.5t22 13.5t18 13.5t15.5 13.5zM182 629q0 -22 -15.5 -37.5t-37.5 -15.5t-37.5 15.5t-15.5 37.5t15.5 37.5t37.5 15.5t37.5 -15.5t15.5 -37.5zM273 629q0 22 15.5 37.5t37.5 15.5t37.5 -15.5t15.5 -37.5t-15.5 -37.5t-37.5 -15.5t-37.5 15.5
t-15.5 37.5z" />
    <glyph glyph-name="aring" unicode="&#xe5;" horiz-adv-x="463" 
d="M84 400l-13 35q-3 7 -3 13q0 13 54.5 29.5t101.5 16.5q154 0 154 -140v-192q0 -63 12 -100h47q12 0 12 -12v-38q0 -12 -12 -12h-85q-5 0 -9.5 2t-8 6t-6 7.5t-5 10t-4 9.5t-3.5 10t-2 8q-1 -1 -6.5 -6t-9.5 -9t-13 -11t-16.5 -12t-19.5 -10.5t-23.5 -9.5t-26 -6.5
t-29.5 -2.5q-60 0 -95 37.5t-35 103.5q0 35 12 63t28.5 45.5t44 30.5t47.5 19t51.5 10t43.5 4.5t35 1.5v36q0 46 -19 68t-70 22q-30 0 -58 -8t-45 -16t-19 -8q-5 0 -7 5zM302 110v129q-20 0 -30 -1t-37 -3.5t-43.5 -9.5t-36 -18t-29.5 -30t-10 -44q0 -34 18.5 -59.5
t53.5 -25.5q12 0 25.5 4t23 8.5t22 13.5t18 13.5t15.5 13.5zM321 629q0 -37 -26 -63t-63 -26t-62.5 26t-25.5 63q0 36 26 62.5t62 26.5q37 0 63 -26t26 -63zM232 586q17 0 29 13t12 30t-12 30t-29 13q-16 0 -28 -13t-12 -30q0 -18 11.5 -30.5t28.5 -12.5z" />
    <glyph glyph-name="ae" unicode="&#xe6;" horiz-adv-x="704" 
d="M638 88l17 -42q0 -1 1.5 -3.5t1.5 -4.5q0 -6 -23.5 -18t-62 -23t-72.5 -11q-53 0 -98.5 21.5t-68.5 47.5l-10 -9l-17.5 -14t-23 -15.5t-30.5 -15.5t-36 -10.5t-43 -4.5q-62 0 -99 37.5t-37 103.5q0 33 12.5 59.5t29 43.5t45 29.5t48.5 18t52.5 9.5t44.5 4.5l36 1.5v44
q0 46 -19 68t-70 22q-30 0 -59.5 -8t-47.5 -16t-21 -8q-5 0 -7 5l-13 35q-3 7 -3 13q0 13 56 29.5t106 16.5q38 0 74.5 -16t49.5 -45q45 61 136 61q45 0 79 -17.5t53 -42.5t31 -60t15.5 -63.5t3.5 -58.5q0 -22 -11 -22h-287q0 -27 6 -54t20 -56.5t43 -48t69 -18.5
q29 0 58 10.5t46.5 20.5t18.5 10q2 0 6 -6zM371 292h216q-4 56 -29.5 98t-74.5 42q-32 0 -55.5 -14.5t-35 -37.5t-16.5 -44.5t-5 -43.5zM305 110v121q-22 0 -31.5 -1t-38 -3.5t-45 -8.5t-37 -16.5t-30.5 -28t-10 -40.5q0 -33 20.5 -59t57.5 -26q12 0 25.5 4t23 8.5t22 13.5
t18 13.5t15.5 13.5z" />
    <glyph glyph-name="ccedilla" unicode="&#xe7;" horiz-adv-x="426" 
d="M256 -14l-4 -40q23 -3 35 -6t27 -18t15 -41q0 -38 -31.5 -58.5t-71.5 -20.5q-21 0 -40.5 5.5t-19.5 13.5q0 2 0.5 4.5t0.5 3.5l4 30q2 5 5 5q1 0 7.5 -2t18 -4t26.5 -2q40 0 40 23q0 16 -19.5 19t-39 5t-19.5 13q0 8 1 13l7 59q-69 12 -110 73t-41 164q0 125 55 197
t148 72q30 0 72.5 -13t63.5 -30q3 -3 3 -15v-86q0 -12 -11 -12h-43q-11 0 -11 12v58q-41 19 -68 19q-70 0 -98.5 -47.5t-28.5 -139.5q0 -187 115 -187q29 0 58 10.5t46.5 20.5t18.5 10q2 0 6 -6l17 -42q0 -1 1.5 -3.5t1.5 -4.5q0 -4 -20 -15.5t-53.5 -23t-63.5 -13.5z" />
    <glyph glyph-name="egrave" unicode="&#xe8;" horiz-adv-x="463" 
d="M124 286h216q0 32 -7 62t-32 57t-65 27q-32 0 -56 -15.5t-35 -39.5t-16 -46.5t-5 -44.5zM391 88l17 -42q0 -1 1.5 -3.5t1.5 -4.5q0 -6 -23.5 -18t-62 -23t-72.5 -11q-99 1 -155 70t-56 184q0 112 53.5 183t144.5 71q182 0 182 -248q0 -22 -11 -22h-287q0 -27 6 -53.5
t20 -54.5t43 -45.5t69 -17.5q29 0 58 10.5t46.5 20.5t18.5 10q2 0 6 -6zM182 703l145 -112q8 -8 8 -9q0 -2 -5 -10l-9 -14q-5 -8 -9 -8q-6 0 -10 3l-164 85q-9 4 -9 9q0 4 4 10l29 43q8 8 10 8z" />
    <glyph glyph-name="eacute" unicode="&#xe9;" horiz-adv-x="463" 
d="M124 286h216q0 32 -7 62t-32 57t-65 27q-32 0 -56 -15.5t-35 -39.5t-16 -46.5t-5 -44.5zM391 88l17 -42q0 -1 1.5 -3.5t1.5 -4.5q0 -6 -23.5 -18t-62 -23t-72.5 -11q-99 1 -155 70t-56 184q0 112 53.5 183t144.5 71q182 0 182 -248q0 -22 -11 -22h-287q0 -27 6 -53.5
t20 -54.5t43 -45.5t69 -17.5q29 0 58 10.5t46.5 20.5t18.5 10q2 0 6 -6zM326 638l-164 -85q-4 -3 -10 -3q-4 0 -9 8l-9 14q-5 8 -5 10q0 1 8 9l145 112q8 5 10 5q5 0 10 -8l29 -43q4 -6 4 -10q0 -5 -9 -9z" />
    <glyph glyph-name="ecircumflex" unicode="&#xea;" horiz-adv-x="463" 
d="M124 286h216q0 32 -7 62t-32 57t-65 27q-32 0 -56 -15.5t-35 -39.5t-16 -46.5t-5 -44.5zM391 88l17 -42q0 -1 1.5 -3.5t1.5 -4.5q0 -6 -23.5 -18t-62 -23t-72.5 -11q-99 1 -155 70t-56 184q0 112 53.5 183t144.5 71q182 0 182 -248q0 -22 -11 -22h-287q0 -27 6 -53.5
t20 -54.5t43 -45.5t69 -17.5q29 0 58 10.5t46.5 20.5t18.5 10q2 0 6 -6zM355 585l-14 -18q-3 -5 -7 -5q-6 0 -10 3l-92 60l-91 -60q-8 -4 -9 -4q-4 0 -10 8l-12 16q-5 7 -5 9t8 10l110 88q8 5 9 5q3 0 10 -5l110 -88q7 -7 7 -9q0 -4 -4 -10z" />
    <glyph glyph-name="edieresis" unicode="&#xeb;" horiz-adv-x="463" 
d="M124 286h216q0 32 -7 62t-32 57t-65 27q-32 0 -56 -15.5t-35 -39.5t-16 -46.5t-5 -44.5zM391 88l17 -42q0 -1 1.5 -3.5t1.5 -4.5q0 -6 -23.5 -18t-62 -23t-72.5 -11q-99 1 -155 70t-56 184q0 112 53.5 183t144.5 71q182 0 182 -248q0 -22 -11 -22h-287q0 -27 6 -53.5
t20 -54.5t43 -45.5t69 -17.5q29 0 58 10.5t46.5 20.5t18.5 10q2 0 6 -6zM182 629q0 -22 -15.5 -37.5t-37.5 -15.5t-37.5 15.5t-15.5 37.5t15.5 37.5t37.5 15.5t37.5 -15.5t15.5 -37.5zM273 629q0 22 15.5 37.5t37.5 15.5t37.5 -15.5t15.5 -37.5t-15.5 -37.5t-37.5 -15.5
t-37.5 15.5t-15.5 37.5z" />
    <glyph glyph-name="igrave" unicode="&#xec;" horiz-adv-x="278" 
d="M265 50v-38q0 -12 -12 -12h-219q-12 0 -12 12v38q0 12 12 12h72v356h-79q-12 0 -12 12v38q0 12 12 12h142q13 0 13 -15v-403h71q12 0 12 -12zM74 703l145 -112q8 -8 8 -9q0 -2 -5 -10l-9 -14q-5 -8 -9 -8q-5 0 -10 3l-164 85q-9 4 -9 9q0 4 4 10l29 43q8 8 10 8z" />
    <glyph glyph-name="iacute" unicode="&#xed;" horiz-adv-x="278" 
d="M265 50v-38q0 -12 -12 -12h-219q-12 0 -12 12v38q0 12 12 12h72v356h-79q-12 0 -12 12v38q0 12 12 12h142q13 0 13 -15v-403h71q12 0 12 -12zM233 638l-164 -85q-5 -3 -10 -3q-4 0 -9 8l-9 14q-5 8 -5 10q0 1 8 9l145 112q7 5 10 5q5 0 10 -8l29 -43q4 -6 4 -10
q0 -5 -9 -9z" />
    <glyph glyph-name="icircumflex" unicode="&#xee;" horiz-adv-x="278" 
d="M265 50v-38q0 -12 -12 -12h-219q-12 0 -12 12v38q0 12 12 12h72v356h-79q-12 0 -12 12v38q0 12 12 12h142q13 0 13 -15v-403h71q12 0 12 -12zM262 585l-14 -18q-3 -5 -7 -5q-5 0 -10 3l-92 60l-91 -60q-8 -4 -9 -4q-4 0 -10 8l-12 16q-5 7 -5 9t8 10l110 88q8 5 9 5
q3 0 10 -5l110 -88q7 -7 7 -9q0 -4 -4 -10z" />
    <glyph glyph-name="idieresis" unicode="&#xef;" horiz-adv-x="278" 
d="M265 50v-38q0 -12 -12 -12h-219q-12 0 -12 12v38q0 12 12 12h72v356h-79q-12 0 -12 12v38q0 12 12 12h142q13 0 13 -15v-403h71q12 0 12 -12zM89 629q0 -22 -15.5 -37.5t-37.5 -15.5t-37.5 15.5t-15.5 37.5t15.5 37.5t37.5 15.5t37.5 -15.5t15.5 -37.5zM180 629
q0 22 15.5 37.5t37.5 15.5t37.5 -15.5t15.5 -37.5t-15.5 -37.5t-37.5 -15.5t-37.5 15.5t-15.5 37.5z" />
    <glyph glyph-name="eth" unicode="&#xf0;" 
d="M275 601l-86 -42q-6 -3 -7 -3q-4 0 -8 7l-12 23l-1 3q-1 3 -1 4q0 3 8 8l84 41q-6 10 -16 26.5t-16.5 27t-6.5 13.5q0 6 12 8l29 5q8 2 13 2q6 0 12 -6q18 -19 33 -44l79 38q6 3 8 3q3 0 7 -7l11 -22q2 -4 2 -8q0 -6 -7 -9l-75 -36q112 -190 112 -365q0 -77 -19 -138
t-67 -102.5t-120 -41.5q-96 0 -144 69.5t-48 182.5q0 111 50 183.5t144 72.5q55 0 95 -37l2 2q-34 86 -67 142zM251 48q116 0 116 196q0 83 -27 135.5t-90 52.5q-117 0 -117 -185q0 -199 118 -199z" />
    <glyph glyph-name="ntilde" unicode="&#xf1;" horiz-adv-x="556" 
d="M526 50v-38q0 -12 -12 -12h-120q-12 0 -12 12v334q0 81 -65 81q-30 0 -59 -12.5t-40 -21.5t-32 -27v-304h57q12 0 12 -12v-38q0 -12 -12 -12h-190q-12 0 -12 12v38q0 12 12 12h57v293q0 30 -6 63h-57q-12 0 -12 12v38q0 12 12 12h100q6 0 11 -3.5t8.5 -11.5t5 -13t4 -15
t2.5 -11q25 20 41 30.5t50.5 24t69.5 13.5q40 0 65.5 -12.5t36 -36.5t14 -46t3.5 -55v-282h56q12 0 12 -12zM392 677l27 -12q7 -5 7 -8q0 -6 -9 -23.5t-31.5 -36.5t-51.5 -19q-26 0 -60 21q-34 20 -52 20q-14 0 -24.5 -9.5t-17 -19.5t-10.5 -10q-2 0 -6 2l-27 11q-8 4 -8 9
t8.5 22.5t31 37t51.5 19.5q25 0 61 -20q34 -21 50 -21q17 0 28 10t16.5 19.5t9.5 9.5q1 0 7 -2z" />
    <glyph glyph-name="ograve" unicode="&#xf2;" 
d="M449 243q0 -113 -50.5 -185t-154.5 -72q-97 0 -145 69t-48 183q0 112 50 184t153 72q98 0 146.5 -69t48.5 -182zM251 48q116 0 116 196q0 83 -27 135.5t-90 52.5q-117 0 -117 -185q0 -199 118 -199zM200 703l145 -112q8 -8 8 -9q0 -2 -5 -10l-9 -14q-5 -8 -9 -8
q-6 0 -10 3l-164 85q-9 4 -9 9q0 4 4 10l29 43q8 8 10 8z" />
    <glyph glyph-name="oacute" unicode="&#xf3;" 
d="M449 243q0 -113 -50.5 -185t-154.5 -72q-97 0 -145 69t-48 183q0 112 50 184t153 72q98 0 146.5 -69t48.5 -182zM251 48q116 0 116 196q0 83 -27 135.5t-90 52.5q-117 0 -117 -185q0 -199 118 -199zM344 638l-164 -85q-4 -3 -10 -3q-4 0 -9 8l-9 14q-5 8 -5 10q0 1 8 9
l145 112q8 5 10 5q5 0 10 -8l29 -43q4 -6 4 -10q0 -5 -9 -9z" />
    <glyph glyph-name="ocircumflex" unicode="&#xf4;" 
d="M449 243q0 -113 -50.5 -185t-154.5 -72q-97 0 -145 69t-48 183q0 112 50 184t153 72q98 0 146.5 -69t48.5 -182zM251 48q116 0 116 196q0 83 -27 135.5t-90 52.5q-117 0 -117 -185q0 -199 118 -199zM373 585l-14 -18q-3 -5 -7 -5q-6 0 -10 3l-92 60l-91 -60q-8 -4 -9 -4
q-4 0 -10 8l-12 16q-5 7 -5 9t8 10l110 88q8 5 9 5q3 0 10 -5l110 -88q7 -7 7 -9q0 -4 -4 -10z" />
    <glyph glyph-name="otilde" unicode="&#xf5;" 
d="M449 243q0 -113 -50.5 -185t-154.5 -72q-97 0 -145 69t-48 183q0 112 50 184t153 72q98 0 146.5 -69t48.5 -182zM251 48q116 0 116 196q0 83 -27 135.5t-90 52.5q-117 0 -117 -185q0 -199 118 -199zM364 677l27 -12q7 -5 7 -8q0 -6 -9 -23.5t-31.5 -36.5t-51.5 -19
q-26 0 -60 21q-34 20 -52 20q-14 0 -24.5 -9.5t-17 -19.5t-10.5 -10q-2 0 -6 2l-27 11q-8 4 -8 9t8.5 22.5t31 37t51.5 19.5q25 0 61 -20q34 -21 50 -21q17 0 28 10t16.5 19.5t9.5 9.5q1 0 7 -2z" />
    <glyph glyph-name="odieresis" unicode="&#xf6;" 
d="M449 243q0 -113 -50.5 -185t-154.5 -72q-97 0 -145 69t-48 183q0 112 50 184t153 72q98 0 146.5 -69t48.5 -182zM251 48q116 0 116 196q0 83 -27 135.5t-90 52.5q-117 0 -117 -185q0 -199 118 -199zM200 629q0 -22 -15.5 -37.5t-37.5 -15.5t-37.5 15.5t-15.5 37.5
t15.5 37.5t37.5 15.5t37.5 -15.5t15.5 -37.5zM291 629q0 22 15.5 37.5t37.5 15.5t37.5 -15.5t15.5 -37.5t-15.5 -37.5t-37.5 -15.5t-37.5 15.5t-15.5 37.5z" />
    <glyph glyph-name="divide" unicode="&#xf7;" 
d="M305 427q0 -23 -16.5 -39.5t-39.5 -16.5t-39.5 16.5t-16.5 39.5t16.5 39.5t39.5 16.5t39.5 -16.5t16.5 -39.5zM476 276v-44q0 -9 -2.5 -11.5t-11.5 -2.5h-427q-9 0 -11 2.5t-2 11.5v44q0 9 2 11.5t11 2.5h427q9 0 11.5 -2.5t2.5 -11.5zM305 81q0 -23 -16.5 -39.5
t-39.5 -16.5t-39.5 16.5t-16.5 39.5t16.5 39.5t39.5 16.5t39.5 -16.5t16.5 -39.5z" />
    <glyph glyph-name="oslash" unicode="&#xf8;" 
d="M424 497l-34 -61q59 -66 59 -193q0 -113 -50.5 -185t-154.5 -72q-13 0 -25.5 1.5t-21.5 3.5t-17.5 5t-13.5 5.5t-10 4.5l-4 2l-31 -56q-5 -7 -7 -7q-5 0 -8 3l-32 16q-7 5 -7 8q0 2 3 8l36 66q-55 71 -55 191q0 113 50.5 185t152.5 72q48 0 90 -21l29 51q3 7 8 7
q2 0 8 -2l31 -17q8 -4 8 -8q0 -1 -1 -2.5t-2 -2.5t-1 -2zM356 376l-172 -310q36 -18 68 -18q65 0 93 52t28 150q0 87 -17 126zM143 111l169 304q-23 17 -62 17q-125 0 -125 -189q0 -103 18 -132z" />
    <glyph glyph-name="ugrave" unicode="&#xf9;" horiz-adv-x="537" 
d="M517 50v-38q0 -12 -12 -12h-84q-13 0 -21 7t-14 22t-7 16q-72 -59 -139 -59q-48 0 -79.5 12.5t-45 36.5t-17.5 46t-4 55v282h-56q-12 0 -12 12v38q0 12 12 12h120q12 0 12 -12v-334q0 -81 82 -81q53 0 114 51v314h-57q-12 0 -12 12v38q0 12 12 12h121q12 0 12 -12v-343
q0 -27 6 -63h57q12 0 12 -12zM204 703l145 -112q8 -8 8 -9q0 -2 -5 -10l-9 -14q-5 -8 -9 -8q-6 0 -10 3l-164 85q-9 4 -9 9q0 4 4 10l29 43q8 8 10 8z" />
    <glyph glyph-name="uacute" unicode="&#xfa;" horiz-adv-x="537" 
d="M517 50v-38q0 -12 -12 -12h-84q-13 0 -21 7t-14 22t-7 16q-72 -59 -139 -59q-48 0 -79.5 12.5t-45 36.5t-17.5 46t-4 55v282h-56q-12 0 -12 12v38q0 12 12 12h120q12 0 12 -12v-334q0 -81 82 -81q53 0 114 51v314h-57q-12 0 -12 12v38q0 12 12 12h121q12 0 12 -12v-343
q0 -27 6 -63h57q12 0 12 -12zM363 638l-164 -85q-4 -3 -10 -3q-4 0 -9 8l-9 14q-5 8 -5 10q0 1 8 9l145 112q8 5 10 5q5 0 10 -8l29 -43q4 -6 4 -10q0 -5 -9 -9z" />
    <glyph glyph-name="ucircumflex" unicode="&#xfb;" horiz-adv-x="537" 
d="M517 50v-38q0 -12 -12 -12h-84q-13 0 -21 7t-14 22t-7 16q-72 -59 -139 -59q-48 0 -79.5 12.5t-45 36.5t-17.5 46t-4 55v282h-56q-12 0 -12 12v38q0 12 12 12h120q12 0 12 -12v-334q0 -81 82 -81q53 0 114 51v314h-57q-12 0 -12 12v38q0 12 12 12h121q12 0 12 -12v-343
q0 -27 6 -63h57q12 0 12 -12zM392 585l-14 -18q-3 -5 -7 -5q-5 0 -10 3l-92 60l-91 -60q-8 -4 -9 -4q-4 0 -10 8l-12 16q-5 7 -5 9t8 10l110 88q8 5 9 5q3 0 10 -5l110 -88q7 -7 7 -9q0 -4 -4 -10z" />
    <glyph glyph-name="udieresis" unicode="&#xfc;" horiz-adv-x="537" 
d="M517 50v-38q0 -12 -12 -12h-84q-13 0 -21 7t-14 22t-7 16q-72 -59 -139 -59q-48 0 -79.5 12.5t-45 36.5t-17.5 46t-4 55v282h-56q-12 0 -12 12v38q0 12 12 12h120q12 0 12 -12v-334q0 -81 82 -81q53 0 114 51v314h-57q-12 0 -12 12v38q0 12 12 12h121q12 0 12 -12v-343
q0 -27 6 -63h57q12 0 12 -12zM219 629q0 -22 -15.5 -37.5t-37.5 -15.5t-37.5 15.5t-15.5 37.5t15.5 37.5t37.5 15.5t37.5 -15.5t15.5 -37.5zM310 629q0 22 15.5 37.5t37.5 15.5t37.5 -15.5t15.5 -37.5t-15.5 -37.5t-37.5 -15.5t-37.5 15.5t-15.5 37.5z" />
    <glyph glyph-name="yacute" unicode="&#xfd;" 
d="M446 418l-103 -356q-39 -133 -69 -199q-16 -33 -47 -53t-71 -20t-83 19t-43 31q0 2 2 6l20 40q2 5 7 5q1 0 34 -19.5t62 -19.5q49 0 76 85l21 63h-36q-9 0 -13 9l-144 409h-40q-12 0 -12 12v38q0 12 12 12h183q12 0 12 -12v-35q0 -11 -12 -11h-64l109 -321q9 -27 20 -72
h2q7 43 15 70l84 323h-60q-11 0 -11 11v35q0 12 11 12h175q12 0 12 -12v-38q0 -12 -12 -12h-37zM359 638l-164 -85q-5 -3 -10 -3q-4 0 -9 8l-9 14q-5 8 -5 10q0 1 8 9l145 112q7 5 10 5q5 0 10 -8l29 -43q4 -6 4 -10q0 -5 -9 -9z" />
    <glyph glyph-name="thorn" unicode="&#xfe;" 
d="M241 -152v-38q0 -12 -12 -12h-197q-12 0 -12 12v38q0 12 12 12h56v795h-56q-12 0 -12 12v38q0 12 12 12h112q13 0 16.5 -4.5t3.5 -14.5v-250l18 11q18 11 30 16.5t35 12t47 6.5q156 0 156 -244q0 -116 -42 -190t-125 -74q-54 0 -119 44v-170h65q12 0 12 -12zM164 378
v-282q62 -43 110 -43q25 0 43 11.5t27.5 28.5t15 45t7 52t1.5 58q0 38 -2.5 64.5t-11 55.5t-27 44t-47.5 15q-44 0 -116 -49z" />
    <glyph glyph-name="ydieresis" unicode="&#xff;" 
d="M446 418l-103 -356q-39 -133 -69 -199q-16 -33 -47 -53t-71 -20t-83 19t-43 31q0 2 2 6l20 40q2 5 7 5q1 0 34 -19.5t62 -19.5q49 0 76 85l21 63h-36q-9 0 -13 9l-144 409h-40q-12 0 -12 12v38q0 12 12 12h183q12 0 12 -12v-35q0 -11 -12 -11h-64l109 -321q9 -27 20 -72
h2q7 43 15 70l84 323h-60q-11 0 -11 11v35q0 12 11 12h175q12 0 12 -12v-38q0 -12 -12 -12h-37zM200 629q0 -22 -15.5 -37.5t-37.5 -15.5t-37.5 15.5t-15.5 37.5t15.5 37.5t37.5 15.5t37.5 -15.5t15.5 -37.5zM291 629q0 22 15.5 37.5t37.5 15.5t37.5 -15.5t15.5 -37.5
t-15.5 -37.5t-37.5 -15.5t-37.5 15.5t-15.5 37.5z" />
    <glyph glyph-name="dotlessi" unicode="&#x131;" horiz-adv-x="278" 
d="M265 50v-38q0 -12 -12 -12h-219q-12 0 -12 12v38q0 12 12 12h72v356h-79q-12 0 -12 12v38q0 12 12 12h142q13 0 13 -15v-403h71q12 0 12 -12z" />
    <glyph glyph-name="Lslash" unicode="&#x141;" horiz-adv-x="481" 
d="M479 138l-46 -127q-4 -11 -15 -11h-366q-12 0 -12 12v41q0 12 12 12h63v215l-66 -43q-4 -2 -6 -2q-4 0 -4 6v48q0 11 9 16l67 44v271h-63q-12 0 -12 12v41q0 12 12 12h208q12 0 12 -12v-41q0 -12 -12 -12h-63v-230l142 93l6 3q4 0 4 -8v-46q0 -11 -8 -18l-144 -94v-250
h180l35 98q3 8 9 8q2 0 6 -1.5t6 -1.5l41 -15q8 -3 8 -10q0 -1 -3 -10z" />
    <glyph glyph-name="lslash" unicode="&#x142;" horiz-adv-x="296" 
d="M270 55l13 -37q2 -4 2 -7q0 -8 -28.5 -16.5t-56.5 -8.5q-73 0 -94 48q-14 33 -14 145v72l-74 -67q-4 -4 -7 -4q-5 0 -5 7v54q0 4 5 9l81 74v331h-60q-12 0 -12 12v38q0 12 12 12h122q14 0 14 -15v-309l90 83q4 4 7 4q5 0 5 -7v-54q0 -4 -5 -9l-97 -89v-144q0 -76 3 -94
q2 -12 11.5 -23.5t28.5 -11.5q15 0 33 6.5t19 6.5q5 0 7 -6z" />
    <glyph glyph-name="OE" unicode="&#x152;" horiz-adv-x="778" 
d="M393 114v455q-15 17 -24 26t-36.5 23t-56.5 14q-134 0 -134 -289q0 -290 131 -290q63 0 120 61zM727 160v-146q0 -9 -3 -11.5t-11 -2.5h-306q-9 0 -11.5 2.5t-2.5 11.5v28l-5 -6q-6 -5 -9.5 -8t-11 -9t-14 -9.5t-17 -8.5t-20.5 -8t-23 -5t-27 -2q-104 0 -159 95t-55 256
q0 181 57.5 271.5t163.5 90.5q69 0 120 -47v20q0 8 2.5 10.5t11.5 2.5h300q8 0 10.5 -3t2.5 -11v-136q0 -12 -11 -12h-46q-11 0 -11 12v80h-177v-222h196q8 0 10.5 -2.5t2.5 -10.5v-44q0 -8 -2.5 -10.5t-10.5 -2.5h-196v-253h184v90q0 11 11 11h45q12 0 12 -11z" />
    <glyph glyph-name="oe" unicode="&#x153;" horiz-adv-x="778" 
d="M711 88l17 -42q0 -1 1.5 -3.5t1.5 -4.5q0 -6 -23.5 -18t-62 -23t-72.5 -11q-38 0 -67 8t-49 24t-30 28t-22 31q-53 -91 -163 -91q-98 0 -146.5 69t-48.5 183q0 112 50.5 184t151.5 72q44 0 79.5 -18t48 -32.5t29.5 -38.5q26 45 68 67t86 22q45 0 79 -17.5t53 -42.5
t31 -60t15.5 -63.5t3.5 -58.5q0 -22 -11 -22h-287q0 -27 6 -54t20 -56.5t43 -48t69 -18.5q29 0 58 10.5t46.5 20.5t18.5 10q2 0 6 -6zM248 48q65 0 91.5 51t26.5 146q0 187 -120 187q-117 0 -117 -184q0 -95 27 -147.5t92 -52.5zM444 292h216q-4 56 -29.5 98t-74.5 42
q-32 0 -55.5 -14.5t-35 -37.5t-16.5 -44.5t-5 -43.5z" />
    <glyph glyph-name="Scaron" unicode="&#x160;" horiz-adv-x="481" 
d="M353 525v81q-52 21 -99 21t-76.5 -25t-29.5 -73q0 -36 23 -65t51.5 -44.5t70.5 -38t66 -42.5q81 -66 81 -157q0 -90 -59.5 -143t-152.5 -53q-40 0 -90 11.5t-86 32.5q-10 6 -10 23v116q0 12 12 12h45q11 0 11 -12v-82q80 -29 121 -29q55 0 87 31.5t32 82.5q0 14 -2 26
t-8.5 23t-11 19.5t-16.5 18.5t-17 15t-21.5 15.5t-21.5 13.5t-24.5 14t-23.5 13q-34 19 -54.5 33.5t-44.5 37.5t-35.5 52.5t-11.5 66.5q0 83 58.5 131t140.5 48q53 0 99 -15t59 -28q6 -6 6 -21v-110q0 -12 -12 -12h-45q-11 0 -11 12zM118 878l14 18q5 5 7 5q5 0 10 -3
l92 -60l91 60q8 4 9 4q4 0 10 -8l12 -16q5 -7 5 -9t-8 -10l-110 -88q-7 -5 -9 -5q-3 0 -10 5l-110 88q-7 7 -7 9q0 4 4 10z" />
    <glyph glyph-name="scaron" unicode="&#x161;" horiz-adv-x="389" 
d="M271 361v55q-26 13 -65 13q-32 0 -53 -16.5t-21 -49.5q0 -30 23 -51t55.5 -35t65 -30t55.5 -46t23 -73q0 -67 -46 -104.5t-114 -37.5q-46 0 -99 17t-53 33v93q0 11 11 11h43q11 0 11 -11v-59q62 -19 91 -19q34 0 57 19t23 53q0 28 -23 48.5t-55.5 35t-65 31t-55.5 46
t-23 71.5q0 61 42.5 100t108.5 39q25 0 61.5 -9.5t56.5 -20.5q11 -6 11 -16v-87q0 -12 -12 -12h-41q-12 0 -12 12zM72 673l14 18q5 5 7 5q6 0 10 -3l92 -60l91 60q8 4 9 4q4 0 10 -8l12 -16q5 -7 5 -9t-8 -10l-110 -88q-8 -5 -9 -5q-2 0 -10 5l-110 88q-7 7 -7 9q0 4 4 10z
" />
    <glyph glyph-name="Ydieresis" unicode="&#x178;" horiz-adv-x="537" 
d="M394 53v-41q0 -12 -12 -12h-222q-12 0 -12 12v41q0 12 12 12h70v224l-176 331h-37q-12 0 -12 12v42q0 11 12 11h193q11 0 11 -11v-42q0 -12 -11 -12h-60l99 -202q11 -20 26 -52q7 19 28 62l90 192h-62q-11 0 -11 12v42q0 11 11 11h194q11 0 11 -11v-42q0 -12 -11 -12h-43
l-170 -329v-226h70q12 0 12 -12zM219 834q0 -22 -15.5 -37.5t-37.5 -15.5t-37.5 15.5t-15.5 37.5t15.5 37.5t37.5 15.5t37.5 -15.5t15.5 -37.5zM310 834q0 22 15.5 37.5t37.5 15.5t37.5 -15.5t15.5 -37.5t-15.5 -37.5t-37.5 -15.5t-37.5 15.5t-15.5 37.5z" />
    <glyph glyph-name="Zcaron" unicode="&#x17d;" horiz-adv-x="481" 
d="M472 122l-40 -110q-5 -12 -16 -12h-360q-8 0 -11 2.5t-3 11.5v52l294 549h-201v-75q0 -12 -13 -12h-43q-12 0 -12 12v131q0 14 15 14h337q8 0 10.5 -2.5t2.5 -10.5v-49l-296 -553h240l29 82q3 8 10 8q4 0 10 -3l42 -15q8 -3 8 -9q0 -1 -0.5 -3t-1.5 -4.5t-1 -3.5z
M118 878l14 18q5 5 7 5q5 0 10 -3l92 -60l91 60q8 4 9 4q4 0 10 -8l12 -16q5 -7 5 -9t-8 -10l-110 -88q-7 -5 -9 -5q-3 0 -10 5l-110 88q-7 7 -7 9q0 4 4 10z" />
    <glyph glyph-name="zcaron" unicode="&#x17e;" horiz-adv-x="444" 
d="M423 109l-40 -100q-3 -9 -13 -9h-312q-8 0 -9.5 2t-1.5 10v40l251 363h-165v-68q0 -12 -12 -12h-42q-12 0 -12 12v121q0 8 2.5 10t9.5 2h302q7 0 9.5 -2t2.5 -10v-41l-249 -362h187l31 77q3 8 9 8q3 0 9 -2l40 -16q8 -3 8 -10zM99 673l14 18q5 5 7 5q6 0 10 -3l92 -60
l91 60q8 4 9 4q4 0 10 -8l12 -16q5 -7 5 -9t-8 -10l-110 -88q-7 -5 -9 -5t-10 5l-110 88q-7 7 -7 9q0 4 4 10z" />
    <glyph glyph-name="florin" unicode="&#x192;" 
d="M282 422l-99 -450q-6 -28 -10 -42.5t-18 -44t-31.5 -45.5t-50.5 -30t-76 -14q-27 0 -51.5 5.5t-24.5 13.5q0 5 1 7l14 41q2 6 7 6q1 0 10.5 -2t24 -4t27.5 -2q23 0 41.5 9t28.5 20t18.5 30.5t10.5 28.5l6 27l99 446h-69q-8 0 -8 6q0 2 3 16l5 24q3 12 13 12h70l20 96
q5 24 8.5 38t15 37.5t27 37t44 24.5t66.5 11q36 0 71.5 -11t35.5 -20q0 -1 -1 -3l-18 -43q-2 -5 -7 -5l-31 12q-32 12 -58 12q-13 0 -23.5 -3t-17.5 -6.5t-13.5 -12.5t-10 -13.5t-7 -16.5t-4.5 -15.5t-4 -17t-3 -14.5l-18 -87h141q8 0 8 -6q0 -4 -5 -16l-9 -24
q-4 -12 -13 -12h-135z" />
    <glyph glyph-name="circumflex" unicode="&#x2c6;" horiz-adv-x="308" 
d="M277 585l-14 -18q-3 -5 -7 -5q-6 0 -10 3l-92 60l-91 -60q-8 -4 -9 -4q-4 0 -10 8l-12 16q-5 7 -5 9t8 10l110 88q8 5 9 5q2 0 10 -5l110 -88q7 -7 7 -9q0 -4 -4 -10z" />
    <glyph glyph-name="caron" unicode="&#x2c7;" horiz-adv-x="308" 
d="M31 673l14 18q5 5 7 5q6 0 10 -3l92 -60l91 60q8 4 9 4q4 0 10 -8l12 -16q5 -7 5 -9t-8 -10l-110 -88q-7 -5 -9 -5t-10 5l-110 88q-7 7 -7 9q0 4 4 10z" />
    <glyph glyph-name="uni02C9" unicode="&#x2c9;" horiz-adv-x="308" 
d="M276 646v-35q0 -8 -2 -10.5t-11 -2.5h-218q-9 0 -11.5 2.5t-2.5 10.5v35q0 8 3 11t11 3h218q13 0 13 -14z" />
    <glyph glyph-name="breve" unicode="&#x2d8;" horiz-adv-x="308" 
d="M234 681l39 -6q11 -2 11 -13q0 -12 -10 -36.5t-29 -42.5q-35 -33 -90 -33q-54 0 -91 33q-19 18 -29 42.5t-10 36.5q0 11 11 13l39 6q1 0 3 0.5t3 0.5q6 0 7 -5q4 -21 8.5 -34.5t19.5 -26.5t39 -13q48 0 64 68q1 4 2 6q1 5 7 5q1 0 3 -0.5t3 -0.5z" />
    <glyph glyph-name="dotaccent" unicode="&#x2d9;" horiz-adv-x="308" 
d="M213 627q0 -24 -17 -41.5t-42 -17.5t-42 17t-17 42t17 42t42 17t42 -17t17 -42z" />
    <glyph glyph-name="ring" unicode="&#x2da;" horiz-adv-x="308" 
d="M243 629q0 -37 -26 -63t-63 -26t-62.5 26t-25.5 63q0 36 26 62.5t62 26.5q37 0 63 -26t26 -63zM154 586q17 0 29 13t12 30t-12 30t-29 13q-16 0 -28 -13t-12 -30q0 -18 11.5 -30.5t28.5 -12.5z" />
    <glyph glyph-name="ogonek" unicode="&#x2db;" horiz-adv-x="308" 
d="M125 15l85 21q-3 -4 -21.5 -25.5t-29 -35.5t-21 -34t-10.5 -34q0 -34 34 -34q13 0 27 5.5t23.5 11t10.5 5.5t5 -6l10 -28q0 -1 1 -3.5t1 -3.5q-1 -11 -28 -21.5t-54 -10.5q-41 0 -65 21t-24 60q0 21 9 41t27 44t20 27z" />
    <glyph glyph-name="tilde" unicode="&#x2dc;" horiz-adv-x="308" 
d="M268 677l27 -12q7 -5 7 -8q0 -6 -9 -23.5t-31.5 -36.5t-51.5 -19q-26 0 -60 21q-34 20 -52 20q-14 0 -24.5 -9.5t-17 -19.5t-10.5 -10q-2 0 -6 2l-27 11q-8 4 -8 9t8.5 22.5t31 37t51.5 19.5q25 0 61 -20q34 -21 50 -21q17 0 28 10t16.5 19.5t9.5 9.5q1 0 7 -2z" />
    <glyph glyph-name="hungarumlaut" unicode="&#x2dd;" horiz-adv-x="308" 
d="M164 663l-126 -112q-7 -5 -10 -5q-4 0 -9 5l-11 10q-7 5 -7 10q0 4 5 9l105 131q5 8 10 8l9 -6l34 -31q0 -1 3.5 -4t3.5 -5q0 -3 -7 -10zM300 663l-126 -112q-7 -5 -10 -5q-4 0 -9 5l-11 10q-7 5 -7 10q0 4 5 9l105 131q5 8 10 8l9 -6l34 -31q0 -1 3.5 -4t3.5 -5
q0 -3 -7 -10z" />
    <glyph glyph-name="uni03A9" unicode="&#x3a9;" horiz-adv-x="645" 
d="M176 61v3q-52 48 -86.5 121.5t-34.5 163.5q0 134 77 221t193 87q118 0 190.5 -89.5t72.5 -213.5q0 -93 -35.5 -169.5t-86.5 -120.5v-3h135v-61h-219v45q56 38 94 114.5t38 179.5q0 63 -20.5 120t-65 96t-104.5 39q-87 0 -140.5 -73.5t-53.5 -183.5q0 -97 38.5 -176.5
t92.5 -115.5v-45h-218v61h133z" />
    <glyph glyph-name="uni03BC" unicode="&#x3bc;" horiz-adv-x="556" 
d="M527 50v-38q0 -12 -12 -12h-84q-13 0 -21 7t-14 22t-7 16q-72 -59 -139 -59q-41 0 -70 25v-151h63q12 0 12 -11v-40q0 -11 -12 -11h-191q-11 0 -11 11v40q0 11 11 11h52v558h-56q-12 0 -12 12v38q0 12 12 12h120q12 0 12 -12v-334q0 -81 82 -81q22 0 60 18t54 33v314h-57
q-12 0 -12 12v38q0 12 12 12h121q12 0 12 -12v-343q0 -30 6 -63h57q12 0 12 -12z" />
    <glyph glyph-name="pi" unicode="&#x3c0;" horiz-adv-x="517" 
d="M493 418h-71v-283q0 -89 13 -135h-71q-15 27 -15 130v288h-159q-4 -99 -22.5 -227t-42.5 -191h-72q24 73 43 197.5t22 220.5q-69 0 -99 -11l-11 49q40 26 132 26h360z" />
    <glyph glyph-name="uni2010" unicode="&#x2010;" horiz-adv-x="352" 
d="M301 279v-51q0 -10 -14 -10h-222q-14 0 -14 13v46q0 16 13 16h223q14 0 14 -14z" />
    <glyph glyph-name="endash" unicode="&#x2013;" 
d="M455 275v-43q0 -10 -14 -10h-382q-14 0 -14 13v38q0 16 13 16h383q14 0 14 -14z" />
    <glyph glyph-name="emdash" unicode="&#x2014;" horiz-adv-x="1000" 
d="M949 275v-43q0 -10 -14 -10h-871q-14 0 -14 13v38q0 16 13 16h872q14 0 14 -14z" />
    <glyph glyph-name="quoteleft" unicode="&#x2018;" horiz-adv-x="185" 
d="M173 690l-59 -199q-3 -11 -15 -11h-80q-14 0 -14 7q0 2 2 5.5t2 4.5l115 211q5 9 9 9q1 0 4 -1t5 -1l22 -7q11 -5 11 -9q0 -3 -2 -9z" />
    <glyph glyph-name="quoteright" unicode="&#x2019;" horiz-adv-x="185" 
d="M176 700l-115 -211q-5 -9 -9 -9q-2 0 -5 1t-4 1l-22 7q-11 5 -11 9q0 3 2 9l59 199q3 11 15 11h80q14 0 14 -7q0 -2 -2 -5.5t-2 -4.5z" />
    <glyph glyph-name="quotesinglbase" unicode="&#x201a;" horiz-adv-x="185" 
d="M163 97l-115 -211q-5 -9 -9 -9q-1 0 -4 1t-5 1l-22 7q-11 5 -11 9q0 3 2 9l59 199q3 11 15 11h80q14 0 14 -7q0 -2 -2 -5.5t-2 -4.5z" />
    <glyph glyph-name="quotedblleft" unicode="&#x201c;" horiz-adv-x="426" 
d="M220 497l115 211q5 9 9 9q2 0 5 -1t4 -1l22 -7q11 -5 11 -9q0 -3 -2 -9l-59 -199q-3 -11 -15 -11h-80q-14 0 -14 7q0 2 2 5.5t2 4.5zM44 497l115 211q5 9 9 9q2 0 5 -1t4 -1l22 -7q11 -5 11 -9q0 -3 -2 -9l-59 -199q-3 -11 -15 -11h-80q-14 0 -14 7q0 2 2 5.5t2 4.5z" />
    <glyph glyph-name="quotedblright" unicode="&#x201d;" horiz-adv-x="426" 
d="M206 700l-115 -211q-5 -9 -9 -9q-2 0 -5 1t-4 1l-22 7q-11 5 -11 9q0 3 2 9l59 199q3 11 15 11h80q14 0 14 -7q0 -2 -2 -5.5t-2 -4.5zM382 700l-115 -211q-5 -9 -9 -9q-2 0 -5 1t-4 1l-22 7q-11 5 -11 9q0 3 2 9l59 199q3 11 15 11h80q14 0 14 -7q0 -2 -2 -5.5t-2 -4.5z
" />
    <glyph glyph-name="quotedblbase" unicode="&#x201e;" horiz-adv-x="426" 
d="M211 97l-115 -211q-5 -9 -9 -9q-1 0 -4 1t-5 1l-22 7q-11 5 -11 9q0 3 2 9l59 199q3 11 15 11h80q14 0 14 -7q0 -2 -2 -5.5t-2 -4.5zM387 97l-115 -211q-5 -9 -9 -9q-1 0 -4 1t-5 1l-22 7q-11 5 -11 9q0 3 2 9l59 199q3 11 15 11h80q14 0 14 -7q0 -2 -2 -5.5t-2 -4.5z
" />
    <glyph glyph-name="dagger" unicode="&#x2020;" 
d="M288 387v-585q0 -12 -13 -12h-50q-8 0 -10.5 2t-2.5 10v585h-117q-9 0 -11.5 3t-2.5 11v44q0 9 2.5 11.5t11.5 2.5h117v213q0 8 2.5 10.5t10.5 2.5h50q8 0 10.5 -2t2.5 -11v-213h117q8 0 11 -2.5t3 -11.5v-44q0 -8 -2.5 -11t-11.5 -3h-117z" />
    <glyph glyph-name="daggerdbl" unicode="&#x2021;" 
d="M288 17v-215q0 -12 -13 -12h-50q-8 0 -10.5 2t-2.5 10v215h-117q-9 0 -11.5 3t-2.5 11v44q0 9 2.5 11.5t11.5 2.5h117v298h-117q-9 0 -11.5 3t-2.5 11v44q0 9 2.5 11.5t11.5 2.5h117v213q0 8 2.5 10.5t10.5 2.5h50q8 0 10.5 -2t2.5 -11v-213h117q8 0 11 -2.5t3 -11.5v-44
q0 -8 -2.5 -11t-11.5 -3h-117v-298h117q8 0 11 -2.5t3 -11.5v-44q0 -8 -2.5 -11t-11.5 -3h-117z" />
    <glyph glyph-name="bullet" unicode="&#x2022;" 
d="M250 180q-75 0 -128 53t-53 127q0 75 53 128.5t128 53.5q74 0 127.5 -53.5t53.5 -128.5q0 -74 -53.5 -127t-127.5 -53z" />
    <glyph glyph-name="ellipsis" unicode="&#x2026;" horiz-adv-x="1000" 
d="M234 67q0 -29 -19 -48t-48 -19t-48 19t-19 48t19 48t48 19t48 -19t19 -48zM567 67q0 -29 -19 -48t-48 -19t-48 19t-19 48t19 48t48 19t48 -19t19 -48zM900 67q0 -29 -19 -48t-48 -19t-48 19t-19 48t19 48t48 19t48 -19t19 -48z" />
    <glyph glyph-name="perthousand" unicode="&#x2030;" horiz-adv-x="1074" 
d="M162 370q70 0 70 119q0 114 -64 114q-70 0 -70 -120q0 -113 64 -113zM499 640l-200 -644q-4 -10 -18 -10h-38q-13 0 -13 7q0 1 1 4t1 5l199 645q2 10 15 10h42q13 0 13 -8q0 -1 -1 -4t-1 -5zM578 40q70 0 70 119q0 114 -64 114q-70 0 -70 -120q0 -113 64 -113zM298 495
q0 -87 -37 -133t-99 -46q-63 0 -96.5 43.5t-33.5 120.5q0 85 37.5 131t99.5 46t95.5 -43t33.5 -119zM714 165q0 -87 -37 -133t-99 -46q-63 0 -96.5 43.5t-33.5 120.5q0 85 37.5 131t99.5 46t95.5 -43t33.5 -119zM1041 165q0 -87 -37 -133t-99 -46q-63 0 -96.5 43.5
t-33.5 120.5q0 85 37.5 131t99.5 46t95.5 -43t33.5 -119zM905 40q70 0 70 119q0 114 -64 114q-70 0 -70 -120q0 -113 64 -113z" />
    <glyph glyph-name="guilsinglleft" unicode="&#x2039;" horiz-adv-x="296" 
d="M117 239l129 -190q5 -8 5 -9q0 -5 -10 -10l-27 -15q-4 -3 -9 -3q-6 0 -10 7l-168 211q-5 5 -5 9q0 5 5 10l168 211q5 7 10 7q2 0 6 -2q2 -1 3 -1l27 -15q9 -5 9 -10q0 -1 -4 -9z" />
    <glyph glyph-name="guilsinglright" unicode="&#x203a;" horiz-adv-x="296" 
d="M269 230l-168 -211q-5 -7 -10 -7q-2 0 -6 2q-2 1 -3 1l-27 15q-9 5 -9 10q0 1 4 9l129 191l-129 190q-5 8 -5 9q0 5 10 10l27 15q4 3 9 3q6 0 10 -7l168 -211q5 -5 5 -9q0 -5 -5 -10z" />
    <glyph glyph-name="fraction" unicode="&#x2044;" horiz-adv-x="230" 
d="M249 640l-200 -644q-3 -10 -18 -10h-38q-13 0 -13 7q0 3 2 9l199 645q3 10 15 10h42q13 0 13 -8q0 -5 -2 -9z" />
    <glyph glyph-name="Euro" unicode="&#x20ac;" 
d="M349 261q0 -11 -12 -11h-167q21 -194 149 -194q43 0 88 26v74q0 12 11 12h46q11 0 11 -12v-98q0 -17 -9 -24q-26 -21 -68 -34.5t-82 -13.5q-102 0 -158 72.5t-70 191.5h-63q-12 0 -12 11v19q0 7 0.5 10t4 5t10.5 2h57q-1 10 -1 31q0 23 1 35h-60q-12 0 -12 11v19
q0 7 0.5 10t4 5t10.5 2h61q15 110 69 178.5t150 68.5q83 0 152 -47q10 -7 10 -18v-104q0 -12 -11 -12h-46q-11 0 -11 12v73q-37 26 -92 26q-121 0 -140 -177h164q7 0 10.5 -2t4 -5t0.5 -10v-19q0 -11 -12 -11h-171v-26q0 -27 1 -40h167q7 0 10.5 -2t4 -5t0.5 -10v-19z" />
    <glyph glyph-name="afii61289" unicode="&#x2113;" horiz-adv-x="440" 
d="M386 137l34 -31q-61 -116 -170 -116q-74 0 -111 47.5t-40 122.5v12q-45 -36 -52 -42l-21 42q52 44 72 64v251q0 116 41 169.5t101 53.5q55 0 84 -42t29 -109q0 -152 -185 -337v-33q1 -71 28 -105.5t69 -34.5q38 0 69.5 26t51.5 62zM168 491v-196q135 151 135 264
q0 95 -63 95q-29 0 -50.5 -39.5t-21.5 -123.5z" />
    <glyph glyph-name="trademark" unicode="&#x2122;" horiz-adv-x="704" 
d="M96 411v18q37 3 44 12q9 10 9 34v192q-11 -2 -19.5 -4.5t-14.5 -5t-11.5 -8t-8 -8.5t-6.5 -11.5t-5.5 -12.5t-6 -16.5t-6.5 -17.5h-18l5 102h234l5 -102h-18q-2 5 -6.5 17.5t-6 16.5t-5.5 12.5t-6.5 11.5t-8 8.5t-11.5 8t-14.5 5t-19.5 4.5v-192q0 -30 8.5 -36.5
t39.5 -9.5v-18h-153zM310 411v18q16 3 22 4.5t13 6t9 12.5t2 23v156q0 14 -0.5 20.5t-6 10t-9 4t-18.5 1.5v18h100l55 -181h2l63 181h108v-18q-14 -2 -17 -2.5t-11 -3t-9 -6.5t-3 -11t-2 -19v-150q0 -29 6.5 -36t30.5 -10v-18h-124v18q15 3 20.5 5.5t10 12t4.5 28.5v185h-2
l-84 -249h-16l-73 239h-2v-175q0 -28 5.5 -35t23.5 -11v-18h-98z" />
    <glyph glyph-name="Omega" unicode="&#x2126;" horiz-adv-x="645" 
d="M176 61v3q-52 48 -86.5 121.5t-34.5 163.5q0 134 77 221t193 87q118 0 190.5 -89.5t72.5 -213.5q0 -93 -35.5 -169.5t-86.5 -120.5v-3h135v-61h-219v45q56 38 94 114.5t38 179.5q0 63 -20.5 120t-65 96t-104.5 39q-87 0 -140.5 -73.5t-53.5 -183.5q0 -97 38.5 -176.5
t92.5 -115.5v-45h-218v61h133z" />
    <glyph glyph-name="estimated" unicode="&#x212e;" horiz-adv-x="809" 
d="M777 312h-604q-5 0 -5 -4v-183q0 -10 8 -20q97 -100 228 -100q144 0 241 112h53q-50 -60 -128 -95t-167 -35q-154 0 -263 97.5t-109 236.5t109 237.5t263 98.5q155 0 264.5 -98.5t109.5 -237.5v-9zM640 336v184q0 12 -9 21q-98 96 -227 96q-130 0 -227 -99q-9 -9 -9 -22
v-180q0 -6 5 -6h463q4 0 4 6z" />
    <glyph glyph-name="partialdiff" unicode="&#x2202;" horiz-adv-x="495" 
d="M92 617l-24 55q62 51 152 51q96 0 163 -90t67 -259q0 -172 -62 -278t-175 -106q-83 0 -129 63.5t-46 150.5q0 106 56.5 171.5t136.5 65.5q53 0 91.5 -27.5t54.5 -56.5q1 10 1 38q0 116 -48 191.5t-118 75.5q-66 0 -120 -45zM219 52h1q60 0 99.5 67.5t49.5 164.5
q-12 36 -46 66.5t-80 30.5q-55 0 -93.5 -52.5t-38.5 -124.5q0 -67 29.5 -109.5t78.5 -42.5z" />
    <glyph glyph-name="uni2206" unicode="&#x2206;" horiz-adv-x="584" 
d="M28 0v49l223 614h85l219 -613v-50h-527zM102 60h375l-126 345q-6 19 -29.5 83t-29.5 88h-3q-5 -18 -25.5 -75.5t-27.5 -81.5z" />
    <glyph glyph-name="product" unicode="&#x220f;" horiz-adv-x="632" 
d="M608 579h-97v-668h-72v668h-246v-668h-72v668h-97v67h584v-67z" />
    <glyph glyph-name="summation" unicode="&#x2211;" horiz-adv-x="499" 
d="M479 -89h-458v49l240 318l-230 317v51h434v-63h-333v-3l212 -291l-231 -305v-3h366v-70z" />
    <glyph glyph-name="minus" unicode="&#x2212;" 
d="M477 276v-44q0 -9 -2.5 -11.5t-11.5 -2.5h-428q-9 0 -11 2.5t-2 11.5v44q0 9 2 11.5t11 2.5h428q9 0 11.5 -2.5t2.5 -11.5z" />
    <glyph glyph-name="uni2215" unicode="&#x2215;" horiz-adv-x="230" 
d="M249 640l-200 -644q-3 -10 -18 -10h-38q-13 0 -13 7q0 3 2 9l199 645q3 10 15 10h42q13 0 13 -8q0 -5 -2 -9z" />
    <glyph glyph-name="uni2219" unicode="&#x2219;" 
d="M312 254q0 -26 -18 -44t-44 -18t-44 18t-18 44t18 44t44 18t44 -18t18 -44z" />
    <glyph glyph-name="radical" unicode="&#x221a;" horiz-adv-x="519" 
d="M519 770l-200 -907h-64l-143 427l-67 -26l-14 45l127 49l112 -337q8 -29 16 -69h1q1 8 5.5 32.5t6.5 37.5l167 748h53z" />
    <glyph glyph-name="infinity" unicode="&#x221e;" horiz-adv-x="707" 
d="M660 269v-1q0 -65 -41.5 -105.5t-97.5 -40.5q-41 0 -79 25t-88 82q-30 -34 -50.5 -53.5t-53.5 -36.5t-68 -17q-56 0 -96 41t-40 102q0 63 40.5 104t102.5 41q47 0 86 -28t82 -80q25 28 36.5 40t35 32t47.5 28t51 8q59 0 96 -39.5t37 -101.5zM189 167h1q12 0 23 2.5
t23.5 10t19.5 11.5t21 17.5t17.5 17t18.5 20t16 17.5q-28 35 -42.5 51t-43.5 34t-59 18q-42 0 -66.5 -29.5t-23.5 -73.5q0 -41 26.5 -68.5t68.5 -27.5zM522 366h-1q-17 0 -33.5 -6.5t-33 -19.5t-27 -23t-26.5 -27.5t-20 -22.5q50 -56 79.5 -78t63.5 -22q40 0 64.5 30
t24.5 68q0 46 -25.5 73.5t-65.5 27.5z" />
    <glyph glyph-name="integral" unicode="&#x222b;" horiz-adv-x="330" 
d="M313 779l-12 -52q-13 9 -33 9q-28 0 -45 -22q-30 -35 -30 -164q0 -72 6 -229.5t6 -234.5q0 -127 -38 -187q-30 -49 -93 -49q-39 0 -60 15l12 54q22 -11 40 -11q27 0 42 21q30 38 30 158q0 78 -6 237.5t-6 232.5q0 145 49 197q34 37 88 37q26 0 50 -12z" />
    <glyph glyph-name="approxequal" unicode="&#x2248;" horiz-adv-x="507" 
d="M436 399l30 -26q-45 -88 -117 -88q-38 0 -106 38q-51 31 -83 31q-47 0 -89 -67l-31 25q21 41 54 64.5t72 23.5q15 0 32 -4.5t24.5 -8t25 -14t18.5 -10.5q3 -2 11.5 -6.5t11 -6t9.5 -5.5t10.5 -5t10 -3.5t10.5 -3t10 -1.5t12 -1q26 0 45.5 16.5t39.5 51.5zM436 242l30 -26
q-45 -87 -118 -87q-37 0 -105 38q-54 31 -83 31t-48.5 -17.5t-40.5 -50.5l-31 25q20 41 53 64.5t72 23.5q13 0 25 -2t24 -7t18.5 -8.5t18.5 -10.5t15 -8q56 -32 85 -32q26 0 45.5 16t39.5 51z" />
    <glyph glyph-name="notequal" unicode="&#x2260;" horiz-adv-x="507" 
d="M362 464l-41 -88h140v-47h-158l-60 -132h218v-47h-237l-48 -106l-37 16l41 90h-134v47h153l59 132h-212v47h231l47 104z" />
    <glyph glyph-name="lessequal" unicode="&#x2264;" horiz-adv-x="507" 
d="M458 91l-407 205v50l407 206v-57l-357 -172v-2l357 -174v-56zM461 5h-415v49h415v-49z" />
    <glyph glyph-name="greaterequal" unicode="&#x2265;" horiz-adv-x="507" 
d="M52 552l407 -206v-50l-407 -205v56l357 173v2l-357 173v57zM460 5h-413v49h413v-49z" />
    <glyph glyph-name="lozenge" unicode="&#x25ca;" horiz-adv-x="519" 
d="M470 323l-182 -364h-60l-179 364l182 365h60zM403 321l-125 254q-11 24 -18 50h-2q-7 -25 -17 -50l-126 -250l127 -257q9 -21 16 -48h3q6 24 16 48z" />
    <glyph glyph-name="fi" unicode="&#xfb01;" horiz-adv-x="593" 
d="M509 656q0 -25 -18 -43t-43 -18q-26 0 -43.5 17.5t-17.5 43.5t17.5 43.5t43.5 17.5q25 0 43 -18t18 -43zM575 50v-38q0 -12 -12 -12h-219q-12 0 -12 12v38q0 12 12 12h72v356h-223v-356h70q12 0 12 -12v-38q0 -12 -12 -12h-202q-12 0 -12 12v38q0 12 12 12h56v356h-70
q-7 0 -7 12v38q0 12 7 12h70v78q0 26 2 46.5t10 44t21.5 39t38 26t57.5 10.5q23 0 61 -12t38 -23q0 -1 -1 -3t-2 -5l-2 -6l-14 -33q-4 -6 -7 -6q-5 0 -30 10.5t-46 10.5q-32 0 -41 -24t-9 -76v-77h286q13 0 13 -15v-403h71q12 0 12 -12z" />
    <glyph glyph-name="fl" unicode="&#xfb02;" horiz-adv-x="611" 
d="M588 55l13 -37q2 -4 2 -7q0 -8 -28.5 -16.5t-56.5 -8.5q-73 0 -94 48q-14 31 -14 145v456q-5 1 -29.5 9.5t-50 13t-58.5 4.5q-51 0 -65.5 -25t-14.5 -80v-77h131q11 0 11 -7q0 -1 -0.5 -3t-0.5 -4l-13 -39q-4 -9 -13 -9h-115v-356h70q12 0 12 -12v-38q0 -12 -12 -12h-202
q-12 0 -12 12v38q0 12 12 12h56v356h-70q-7 0 -7 12v38q0 12 7 12h70v78q0 33 5.5 58.5t20.5 52t48.5 41t84.5 14.5q26 0 51 -4.5t50 -11t36 -8.5l53 19q2 0 7 2.5t8 2.5q6 0 6 -12v-535q0 -76 3 -94q2 -12 11.5 -23.5t28.5 -11.5q15 0 33 6.5t19 6.5q5 0 7 -6z" />
    <glyph glyph-name="a.superior" horiz-adv-x="444" 
d="M371 325h-73q-8 0 -14.5 13.5t-7.5 22.5q-48 -43 -100 -43q-41 0 -65.5 25t-24.5 68q0 117 182 121v18q0 27 -13.5 38.5t-48.5 11.5q-21 0 -40.5 -5t-31 -10.5t-14.5 -5.5q-4 0 -6 7l-8 29q-2 8 -2 10q0 10 38.5 21t77.5 11q62 0 86.5 -23.5t24.5 -71.5v-118q0 -40 8 -67
h32q8 0 8 -8v-36q0 -8 -8 -8zM268 403v80q-115 0 -115 -69q0 -17 9.5 -30.5t27.5 -13.5q38 0 78 33z" />
    <glyph glyph-name="o.superior" horiz-adv-x="407" 
d="M338 489q0 -75 -34 -123t-104 -48q-65 0 -98 46t-33 121t34 123.5t103 48.5q67 0 99.5 -46t32.5 -122zM204 370q67 0 67 120q0 115 -67 115q-68 0 -68 -113q0 -122 68 -122z" />
    <glyph glyph-name="one.superior" horiz-adv-x="352" 
d="M294 294v-24q0 -9 -3 -12t-12 -3h-175q-9 0 -12 3t-3 12v24q0 9 3 12t12 3h61v265l-83 -42q-4 -3 -9 -3q-6 0 -11 9l-8 12q-3 4 -3 9q0 6 8 11l119 73h34q16 0 16 -15v-319h51q15 0 15 -15z" />
    <glyph glyph-name="two.superior" horiz-adv-x="352" 
d="M298 299v-26q0 -18 -19 -18h-207q-18 0 -18 16v5q0 40 9 72t28 54t34 35t40 29.5t34 23.5q31 24 31 54q0 53 -52 53q-45 0 -61 -57q-4 -11 -12 -11q-4 0 -10 2l-27 7q-13 2 -13 14t11 33t26 34q36 32 89 32q52 0 84.5 -27.5t32.5 -76.5q0 -30 -14.5 -55t-29 -37.5
t-43 -30.5t-34.5 -23q-43 -33 -52 -84h154q19 0 19 -18z" />
    <glyph glyph-name="three.superior" horiz-adv-x="352" 
d="M73 565l-24 18q-4 4 -4 8q0 15 36.5 37.5t81.5 22.5q50 0 84.5 -27t34.5 -74q0 -24 -12 -43.5t-19.5 -25.5t-22.5 -15q68 -33 68 -100q0 -54 -40.5 -86.5t-106.5 -32.5q-34 0 -74 9.5t-40 20.5q0 4 3 10l13 26q4 8 9 8q2 0 14 -5t32.5 -10t44.5 -5q37 0 57 17.5t20 49.5
q0 65 -88 65h-22q-15 0 -15 11v27q0 9 3 12t12 3h22q29 0 54 14.5t25 48.5q0 22 -17 35t-42 13q-27 0 -52 -18t-27 -18q-4 0 -8 4z" />
    </font>
</defs>
</svg>
